<?xml version="1.0" encoding="UTF-8" standalone="no"?>
<!-- Created with Inkscape (http://www.inkscape.org/) -->

<svg
   xmlns:dc="http://purl.org/dc/elements/1.1/"
   xmlns:cc="http://creativecommons.org/ns#"
   xmlns:rdf="http://www.w3.org/1999/02/22-rdf-syntax-ns#"
   xmlns:svg="http://www.w3.org/2000/svg"
   xmlns="http://www.w3.org/2000/svg"
   xmlns:sodipodi="http://sodipodi.sourceforge.net/DTD/sodipodi-0.dtd"
   xmlns:inkscape="http://www.inkscape.org/namespaces/inkscape"
   width="1024"
   height="1024"
   viewBox="0 0 1024 1024"
   id="svg2"
   version="1.1"
   inkscape:version="0.91 r13725"
   sodipodi:docname="instructions.svg">
  <defs
     id="defs4" />
  <sodipodi:namedview
     id="base"
     pagecolor="#ffffff"
     bordercolor="#666666"
     borderopacity="1.0"
     inkscape:pageopacity="0.0"
     inkscape:pageshadow="2"
     inkscape:zoom="0.69882038"
     inkscape:cx="175.14436"
     inkscape:cy="465.20647"
     inkscape:document-units="px"
     inkscape:current-layer="text4240"
     showgrid="false"
     units="px"
     fit-margin-top="0"
     fit-margin-left="0"
     fit-margin-right="0"
     fit-margin-bottom="0"
     inkscape:window-width="1440"
     inkscape:window-height="800"
     inkscape:window-x="10"
     inkscape:window-y="0"
     inkscape:window-maximized="0" />
  <metadata
     id="metadata7">
    <rdf:RDF>
      <cc:Work
         rdf:about="">
        <dc:format>image/svg+xml</dc:format>
        <dc:type
           rdf:resource="http://purl.org/dc/dcmitype/StillImage" />
        <dc:title />
      </cc:Work>
    </rdf:RDF>
  </metadata>
  <g
     inkscape:label="Layer 1"
     inkscape:groupmode="layer"
     id="layer1"
     transform="translate(0,-28.36218)">
    <text
       xml:space="preserve"
       style="font-style:normal;font-variant:normal;font-weight:normal;font-stretch:normal;font-size:40px;line-height:125%;font-family:moderna;-inkscape-font-specification:'moderna, Normal';text-align:start;letter-spacing:0px;word-spacing:0px;writing-mode:lr-tb;text-anchor:start;fill:#000000;fill-opacity:1;stroke:none;stroke-width:1px;stroke-linecap:butt;stroke-linejoin:miter;stroke-opacity:1"
       x="290.92392"
       y="415.96609"
       id="text4155"
       sodipodi:linespacing="125%"><tspan
         sodipodi:role="line"
         id="tspan4157"
         x="290.92392"
         y="415.96609" /></text>
    <g
       id="g4237"
       transform="translate(0,64.032992)">
      <g
         id="g4309"
         transform="translate(0,152.29461)">
        <g
           id="g4274">
          <g
             style="font-style:normal;font-variant:normal;font-weight:normal;font-stretch:normal;font-size:40px;line-height:125%;font-family:moderna;-inkscape-font-specification:'moderna, Normal';text-align:start;letter-spacing:0px;word-spacing:0px;writing-mode:lr-tb;text-anchor:start;fill:#00003c;fill-opacity:1;stroke:none;stroke-width:1px;stroke-linecap:butt;stroke-linejoin:miter;stroke-opacity:1"
             id="text4221"
             transform="translate(-8.2438077,-80.135042)">
            <g
               style="font-style:normal;font-variant:normal;font-weight:normal;font-stretch:normal;font-size:40px;line-height:125%;font-family:moderna;-inkscape-font-specification:'moderna, Normal';text-align:start;letter-spacing:0px;word-spacing:0px;writing-mode:lr-tb;text-anchor:start;fill:#000000;fill-opacity:1;stroke:none;stroke-width:1px;stroke-linecap:butt;stroke-linejoin:miter;stroke-opacity:1"
               id="text4357">
              <path
                 d="m 404.88145,317.6401 q -2.6,0.92 -5.36,0.92 -6.76,0 -11.44,-4.64 -4.68,-4.68 -4.68,-11.44 0,-6.76 4.68,-11.44 4.68,-4.68 11.44,-4.68 2.76,0 5.36,0.92 l 0,5.96 q -2.48,-1.48 -5.36,-1.48 -4.52,0 -7.64,3.12 -3.08,3.08 -3.08,7.6 0,4.48 3.12,7.6 3.12,3.08 7.6,3.08 2.88,0 5.36,-1.44 l 0,5.92 z"
                 style="fill:#00003c;fill-opacity:1"
                 id="path4171" />
              <path
                 d="m 429.0202,307.9201 q 0,4.48 -3.12,7.6 -3.08,3.12 -7.56,3.12 -4.52,0 -7.64,-3.08 -3.08,-3.12 -3.08,-7.64 0,-4.48 3.12,-7.56 3.12,-3.12 7.6,-3.12 4.48,0 7.56,3.12 3.12,3.08 3.12,7.56 z m -5.4,0 q 0,-2.16 -1.56,-3.72 -1.56,-1.56 -3.72,-1.56 -2.2,0 -3.76,1.56 -1.56,1.52 -1.56,3.72 0,2.2 1.56,3.76 1.56,1.56 3.76,1.56 2.2,0 3.72,-1.56 1.56,-1.56 1.56,-3.76 z"
                 style="fill:#00003c;fill-opacity:1"
                 id="path4173" />
              <path
                 d="m 453.27895,318.0401 -5.4,0 -0.04,-10.12 q 0,-2.16 -1.56,-3.72 -1.56,-1.56 -3.72,-1.56 -2.2,0 -3.76,1.56 -1.56,1.52 -1.56,3.72 l 0,10.12 -5.4,0 0,-10.12 q 0,-4.48 3.12,-7.56 3.12,-3.12 7.6,-3.12 4.48,0 7.6,3.12 3.12,3.08 3.12,7.56 l 0,10.12 z"
                 style="fill:#00003c;fill-opacity:1"
                 id="path4175" />
              <path
                 d="m 466.69957,318.0401 q -4.48,0 -7.6,-3.08 -3.12,-3.12 -3.12,-7.6 l 0,-21 5.4,0 0,10.92 5.32,0 0,4.6 -5.32,0 0,5.48 q 0,2.2 1.56,3.76 1.56,1.52 3.76,1.52 l 0,5.4 z"
                 style="fill:#00003c;fill-opacity:1"
                 id="path4177" />
              <path
                 d="m 480.13707,302.6401 q -2.2,0 -3.76,1.56 -1.56,1.52 -1.56,3.72 l 0,10.12 -5.4,0 0,-10.12 q 0,-4.48 3.12,-7.56 3.12,-3.12 7.6,-3.12 l 0,5.4 z"
                 style="fill:#00003c;fill-opacity:1"
                 id="path4179" />
              <path
                 d="m 504.17645,307.9201 q 0,4.48 -3.12,7.6 -3.08,3.12 -7.56,3.12 -4.52,0 -7.64,-3.08 -3.08,-3.12 -3.08,-7.64 0,-4.48 3.12,-7.56 3.12,-3.12 7.6,-3.12 4.48,0 7.56,3.12 3.12,3.08 3.12,7.56 z m -5.4,0 q 0,-2.16 -1.56,-3.72 -1.56,-1.56 -3.72,-1.56 -2.2,0 -3.76,1.56 -1.56,1.52 -1.56,3.72 0,2.2 1.56,3.76 1.56,1.56 3.76,1.56 2.2,0 3.72,-1.56 1.56,-1.56 1.56,-3.76 z"
                 style="fill:#00003c;fill-opacity:1"
                 id="path4181" />
              <path
                 d="m 512.3952,318.0401 -5.4,0 0,-31.68 5.4,0 0,31.68 z"
                 style="fill:#00003c;fill-opacity:1"
                 id="path4183" />
              <path
                 d="m 554.0202,307.9601 q 0,4.48 -3.12,7.6 -3.08,3.08 -7.56,3.08 -2.88,0 -5.32,-1.4 l 0,12.28 -5.4,0 0,-21.56 q 0,-4.52 3.08,-7.6 3.12,-3.08 7.64,-3.08 4.48,0 7.56,3.12 3.12,3.08 3.12,7.56 z m -5.4,0 q 0,-2.2 -1.56,-3.72 -1.52,-1.56 -3.72,-1.56 -2.2,0 -3.76,1.56 -1.56,1.52 -1.56,3.72 0,2.2 1.56,3.76 1.56,1.52 3.76,1.52 2.2,0 3.72,-1.52 1.56,-1.56 1.56,-3.76 z"
                 style="fill:#00003c;fill-opacity:1"
                 id="path4185" />
              <path
                 d="m 562.16082,318.0401 -5.4,0 0,-31.68 5.4,0 0,31.68 z"
                 style="fill:#00003c;fill-opacity:1"
                 id="path4187" />
              <path
                 d="m 590.64582,318.0401 -5.72,0 -1.16,-3.12 q -3.2,3.76 -8.16,3.76 -4.48,0 -7.6,-3.12 -3.08,-3.12 -3.08,-7.56 0,-3.4 1.92,-6.12 1.92,-2.76 5.12,-3.92 1.88,-0.68 3.68,-0.68 3.4,0 6.12,1.96 2.76,1.92 3.92,5.12 l 4.96,13.68 z m -9.72,-10.04 q 0,-2.8 -2.28,-4.36 -1.32,-0.92 -3.04,-0.92 -2.8,0 -4.32,2.24 -0.96,1.4 -0.96,3.04 0,2.76 2.28,4.32 1.4,0.96 3,0.96 2.2,0 3.76,-1.52 1.56,-1.56 1.56,-3.76 z"
                 style="fill:#00003c;fill-opacity:1"
                 id="path4189" />
              <path
                 d="m 614.91957,318.2401 q 0,4.52 -3.12,7.6 -3.08,3.08 -7.6,3.08 l 0,-5.4 q 2.2,0 3.76,-1.56 1.56,-1.52 1.56,-3.72 l 0,-0.96 q -2.48,1.4 -5.32,1.4 -4.48,0 -7.6,-3.12 -3.12,-3.12 -3.12,-7.6 l 0,-10.72 5.4,0 0.04,10.72 q 0,2.2 1.52,3.76 1.56,1.56 3.76,1.56 2.2,0 3.76,-1.56 1.56,-1.56 1.56,-3.76 l 0,-10.72 5.4,0 0,21 z"
                 style="fill:#00003c;fill-opacity:1"
                 id="path4191" />
              <path
                 d="m 639.0202,307.9201 q 0,0.8 -0.12,1.6 l -15.64,0 q 0.52,1.68 1.92,2.72 1.4,1 3.16,1 2.44,0 4.04,-1.88 l 3.28,4.36 q -3.08,2.92 -7.32,2.92 -4.52,0 -7.64,-3.08 -3.08,-3.12 -3.08,-7.64 0,-4.48 3.12,-7.56 3.12,-3.12 7.6,-3.12 4.48,0 7.56,3.12 3.12,3.08 3.12,7.56 z m -6.04,-2.44 q -1.48,-2.84 -4.64,-2.84 -3.2,0 -4.68,2.84 l 9.32,0 z m 5.92,4 0,0 z"
                 style="fill:#00003c;fill-opacity:1"
                 id="path4193" />
              <path
                 d="m 652.55895,302.6401 q -2.2,0 -3.76,1.56 -1.56,1.52 -1.56,3.72 l 0,10.12 -5.4,0 0,-10.12 q 0,-4.48 3.12,-7.56 3.12,-3.12 7.6,-3.12 l 0,5.4 z"
                 style="fill:#00003c;fill-opacity:1"
                 id="path4195" />
              <path
                 d="m 709.33832,318.0401 -5.4,0 -0.04,-10.12 q 0,-2.2 -1.56,-3.72 -1.52,-1.56 -3.72,-1.56 -2.96,0 -4.52,2.52 l 0.04,0.04 0,12.84 -5.4,0 -0.04,-10.12 q 0,-2.16 -1.56,-3.72 -1.56,-1.56 -3.72,-1.56 -2.2,0 -3.76,1.56 -1.56,1.52 -1.56,3.72 l 0,10.12 -5.4,0 0,-10.12 q 0,-4.48 3.12,-7.56 3.12,-3.12 7.6,-3.12 4.44,0 7.6,3.2 3.16,-3.2 7.6,-3.2 4.48,0 7.6,3.12 3.12,3.08 3.12,7.56 l 0,10.12 z"
                 style="fill:#00003c;fill-opacity:1"
                 id="path4197" />
              <path
                 d="m 733.47332,307.9201 q 0,4.48 -3.12,7.6 -3.08,3.12 -7.56,3.12 -4.52,0 -7.64,-3.08 -3.08,-3.12 -3.08,-7.64 0,-4.48 3.12,-7.56 3.12,-3.12 7.6,-3.12 4.48,0 7.56,3.12 3.12,3.08 3.12,7.56 z m -5.4,0 q 0,-2.16 -1.56,-3.72 -1.56,-1.56 -3.72,-1.56 -2.2,0 -3.76,1.56 -1.56,1.52 -1.56,3.72 0,2.2 1.56,3.76 1.56,1.56 3.76,1.56 2.2,0 3.72,-1.56 1.56,-1.56 1.56,-3.76 z"
                 style="fill:#00003c;fill-opacity:1"
                 id="path4199" />
              <path
                 d="m 754.69207,297.2801 -9.88,20.76 -10,-20.76 6.4,0 3.64,8.52 3.64,-8.52 6.2,0 z"
                 style="fill:#00003c;fill-opacity:1"
                 id="path4201" />
              <path
                 d="m 777.37957,307.9201 q 0,0.8 -0.12,1.6 l -15.64,0 q 0.52,1.68 1.92,2.72 1.4,1 3.16,1 2.44,0 4.04,-1.88 l 3.28,4.36 q -3.08,2.92 -7.32,2.92 -4.52,0 -7.64,-3.08 -3.08,-3.12 -3.08,-7.64 0,-4.48 3.12,-7.56 3.12,-3.12 7.6,-3.12 4.48,0 7.56,3.12 3.12,3.08 3.12,7.56 z m -6.04,-2.44 q -1.48,-2.84 -4.64,-2.84 -3.2,0 -4.68,2.84 l 9.32,0 z m 5.92,4 0,0 z"
                 style="fill:#00003c;fill-opacity:1"
                 id="path4203" />
              <path
                 d="m 816.83832,318.0401 -5.4,0 -0.04,-10.12 q 0,-2.2 -1.56,-3.72 -1.52,-1.56 -3.72,-1.56 -2.96,0 -4.52,2.52 l 0.04,0.04 0,12.84 -5.4,0 -0.04,-10.12 q 0,-2.16 -1.56,-3.72 -1.56,-1.56 -3.72,-1.56 -2.2,0 -3.76,1.56 -1.56,1.52 -1.56,3.72 l 0,10.12 -5.4,0 0,-10.12 q 0,-4.48 3.12,-7.56 3.12,-3.12 7.6,-3.12 4.44,0 7.6,3.2 3.16,-3.2 7.6,-3.2 4.48,0 7.6,3.12 3.12,3.08 3.12,7.56 l 0,10.12 z"
                 style="fill:#00003c;fill-opacity:1"
                 id="path4205" />
              <path
                 d="m 840.97332,307.9201 q 0,0.8 -0.12,1.6 l -15.64,0 q 0.52,1.68 1.92,2.72 1.4,1 3.16,1 2.44,0 4.04,-1.88 l 3.28,4.36 q -3.08,2.92 -7.32,2.92 -4.52,0 -7.64,-3.08 -3.08,-3.12 -3.08,-7.64 0,-4.48 3.12,-7.56 3.12,-3.12 7.6,-3.12 4.48,0 7.56,3.12 3.12,3.08 3.12,7.56 z m -6.04,-2.44 q -1.48,-2.84 -4.64,-2.84 -3.2,0 -4.68,2.84 l 9.32,0 z m 5.92,4 0,0 z"
                 style="fill:#00003c;fill-opacity:1"
                 id="path4207" />
              <path
                 d="m 865.23207,318.0401 -5.4,0 -0.04,-10.12 q 0,-2.16 -1.56,-3.72 -1.56,-1.56 -3.72,-1.56 -2.2,0 -3.76,1.56 -1.56,1.52 -1.56,3.72 l 0,10.12 -5.4,0 0,-10.12 q 0,-4.48 3.12,-7.56 3.12,-3.12 7.6,-3.12 4.48,0 7.6,3.12 3.12,3.08 3.12,7.56 l 0,10.12 z"
                 style="fill:#00003c;fill-opacity:1"
                 id="path4209" />
              <path
                 d="m 878.6527,318.0401 q -4.48,0 -7.6,-3.08 -3.12,-3.12 -3.12,-7.6 l 0,-21 5.4,0 0,10.92 5.32,0 0,4.6 -5.32,0 0,5.48 q 0,2.2 1.56,3.76 1.56,1.52 3.76,1.52 l 0,5.4 z"
                 style="fill:#00003c;fill-opacity:1"
                 id="path4211" />
            </g>
          </g>
          <g
             id="g4314"
             transform="matrix(0,-1,1,0,19.25881,627.6172)">
            <g
               id="g4340">
              <g
                 transform="matrix(0,1,-1,0,587.56993,-212.05425)"
                 id="g4293">
                <g
                   transform="matrix(1.116071,0,0,1.1160724,105.63171,-140.33899)"
                   id="layer1-5"
                   inkscape:label="Layer 1"
                   style="fill:none;fill-opacity:1;stroke:#00003c;stroke-width:7.67999983;stroke-miterlimit:4;stroke-dasharray:none;stroke-opacity:1">
                  <path
                     transform="translate(186.78571,306.77441)"
                     id="path4144-2"
                     d="M 14,0 0,14 0,50 14,64 50,64 64,50 64,14 50,0 14,0 Z"
                     style="opacity:1;fill:none;fill-opacity:1;stroke:#00003c;stroke-width:7.67999983;stroke-linecap:round;stroke-linejoin:miter;stroke-miterlimit:4;stroke-dasharray:none;stroke-dashoffset:0;stroke-opacity:1"
                     inkscape:connector-curvature="0" />
                </g>
                <path
                   style="opacity:0.98999999;fill:#00003c;fill-opacity:1;stroke:none;stroke-width:50;stroke-linecap:round;stroke-linejoin:miter;stroke-miterlimit:4;stroke-dasharray:none;stroke-dashoffset:0;stroke-opacity:1"
                   d="m 350.05091,217.16448 c -1.90076,-0.0896 -3.69272,0.88927 -4.64462,2.53694 l -11.33526,19.63416 c -1.95715,3.39128 0.48969,7.63069 4.4052,7.63141 l 3.53094,0 0,8.11268 c 0,1.81603 1.46217,3.27701 3.27819,3.27701 l 9.05347,0 c 1.816,0 3.27818,-1.46098 3.27818,-3.27701 l 0,-8.11268 3.53095,0 c 3.9155,-5.5e-4 6.36235,-4.24013 4.4052,-7.63141 L 354.2179,219.70142 c -0.86655,-1.49987 -2.43671,-2.45585 -4.16699,-2.53694 z"
                   id="rect4274"
                   inkscape:connector-curvature="0" />
              </g>
              <g
                 transform="matrix(-1,0,0,-1,799.62424,375.51562)"
                 id="g4298">
                <g
                   style="fill:none;fill-opacity:1;stroke:#00003c;stroke-width:7.67999983;stroke-miterlimit:4;stroke-dasharray:none;stroke-opacity:1"
                   inkscape:label="Layer 1"
                   id="g4300"
                   transform="matrix(1.116071,0,0,1.1160724,105.63171,-140.33899)">
                  <path
                     inkscape:connector-curvature="0"
                     style="opacity:1;fill:none;fill-opacity:1;stroke:#00003c;stroke-width:7.67999983;stroke-linecap:round;stroke-linejoin:miter;stroke-miterlimit:4;stroke-dasharray:none;stroke-dashoffset:0;stroke-opacity:1"
                     d="M 14,0 0,14 0,50 14,64 50,64 64,50 64,14 50,0 14,0 Z"
                     id="path4302"
                     transform="translate(186.78571,306.77441)" />
                </g>
                <path
                   inkscape:connector-curvature="0"
                   id="path4304"
                   d="m 350.05091,217.16448 c -1.90076,-0.0896 -3.69272,0.88927 -4.64462,2.53694 l -11.33526,19.63416 c -1.95715,3.39128 0.48969,7.63069 4.4052,7.63141 l 3.53094,0 0,8.11268 c 0,1.81603 1.46217,3.27701 3.27819,3.27701 l 9.05347,0 c 1.816,0 3.27818,-1.46098 3.27818,-3.27701 l 0,-8.11268 3.53095,0 c 3.9155,-5.5e-4 6.36235,-4.24013 4.4052,-7.63141 L 354.2179,219.70142 c -0.86655,-1.49987 -2.43671,-2.45585 -4.16699,-2.53694 z"
                   style="opacity:0.98999999;fill:#00003c;fill-opacity:1;stroke:none;stroke-width:50;stroke-linecap:round;stroke-linejoin:miter;stroke-miterlimit:4;stroke-dasharray:none;stroke-dashoffset:0;stroke-opacity:1" />
              </g>
              <g
                 id="g4306"
                 transform="matrix(-1,0,0,-1,799.62424,475.51556)">
                <g
                   transform="matrix(0,1.116071,-1.1160724,0,727.90886,-6.4226073)"
                   id="g4308"
                   inkscape:label="Layer 1"
                   style="fill:none;fill-opacity:1;stroke:#00003c;stroke-width:7.67999983;stroke-miterlimit:4;stroke-dasharray:none;stroke-opacity:1">
                  <path
                     transform="translate(186.78571,306.77441)"
                     id="path4310"
                     d="M 14,0 0,14 0,50 14,64 50,64 64,50 64,14 50,0 14,0 Z"
                     style="opacity:1;fill:none;fill-opacity:1;stroke:#00003c;stroke-width:7.67999983;stroke-linecap:round;stroke-linejoin:miter;stroke-miterlimit:4;stroke-dasharray:none;stroke-dashoffset:0;stroke-opacity:1"
                     inkscape:connector-curvature="0" />
                </g>
                <path
                   style="opacity:0.98999999;fill:#00003c;fill-opacity:1;stroke:none;stroke-width:50;stroke-linecap:round;stroke-linejoin:miter;stroke-miterlimit:4;stroke-dasharray:none;stroke-dashoffset:0;stroke-opacity:1"
                   d="m 370.40539,237.99659 c 0.0896,-1.90076 -0.88927,-3.69272 -2.53694,-4.64462 l -19.63416,-11.33526 c -3.39128,-1.95715 -7.63069,0.48969 -7.63141,4.4052 l 0,3.53094 -8.11268,0 c -1.81603,0 -3.27701,1.46217 -3.27701,3.27819 l 0,9.05347 c 0,1.816 1.46098,3.27818 3.27701,3.27818 l 8.11268,0 0,3.53095 c 5.5e-4,3.9155 4.24013,6.36235 7.63141,4.4052 l 19.63416,-11.33526 c 1.49987,-0.86655 2.45585,-2.43671 2.53694,-4.16699 z"
                   id="path4312"
                   inkscape:connector-curvature="0" />
              </g>
              <g
                 style="fill:none;fill-opacity:1;stroke:#00003c;stroke-width:7.67999983;stroke-miterlimit:4;stroke-dasharray:none;stroke-opacity:1"
                 inkscape:label="Layer 1"
                 id="g4316"
                 transform="matrix(1.116071,0,0,1.1160724,105.63171,-140.33899)">
                <path
                   inkscape:connector-curvature="0"
                   style="opacity:1;fill:none;fill-opacity:1;stroke:#00003c;stroke-width:7.67999983;stroke-linecap:round;stroke-linejoin:miter;stroke-miterlimit:4;stroke-dasharray:none;stroke-dashoffset:0;stroke-opacity:1"
                   d="M 14,0 0,14 0,50 14,64 50,64 64,50 64,14 50,0 14,0 Z"
                   id="path4318"
                   transform="translate(186.78571,306.77441)" />
              </g>
              <path
                 inkscape:connector-curvature="0"
                 id="path4320"
                 d="m 350.05091,217.16451 c -1.90076,-0.0896 -3.69272,0.88927 -4.64462,2.53694 l -11.33526,19.63416 c -1.95715,3.39128 0.48969,7.63069 4.4052,7.63141 l 3.53094,0 0,8.11268 c 0,1.81603 1.46217,3.27701 3.27819,3.27701 l 9.05347,0 c 1.816,0 3.27818,-1.46098 3.27818,-3.27701 l 0,-8.11268 3.53095,0 c 3.9155,-5.5e-4 6.36235,-4.24013 4.4052,-7.63141 L 354.2179,219.70145 c -0.86655,-1.49987 -2.43671,-2.45585 -4.16699,-2.53694 z"
                 style="opacity:0.98999999;fill:#00003c;fill-opacity:1;stroke:none;stroke-width:50;stroke-linecap:round;stroke-linejoin:miter;stroke-miterlimit:4;stroke-dasharray:none;stroke-dashoffset:0;stroke-opacity:1" />
            </g>
          </g>
        </g>
        <g
           id="g4296">
          <g
             style="font-style:normal;font-variant:normal;font-weight:normal;font-stretch:normal;font-size:40px;line-height:125%;font-family:moderna;-inkscape-font-specification:'moderna, Normal';text-align:start;letter-spacing:0px;word-spacing:0px;writing-mode:lr-tb;text-anchor:start;fill:#00003c;fill-opacity:1;stroke:none;stroke-width:1px;stroke-linecap:butt;stroke-linejoin:miter;stroke-opacity:1"
             id="text4157">
            <path
               d="m 551.78868,472.20819 -9.32,0 0,15.12 -5.44,0 0,-31.68 14.76,0 0,4.64 -9.32,0 0,6.28 9.32,0 0,5.64 z"
               style=""
               id="path4214" />
            <path
               d="m 559.92868,487.32819 -5.4,0 0,-31.68 5.4,0 0,31.68 z"
               style=""
               id="path4216" />
            <path
               d="m 568.53368,461.96819 q 0,1.36 -0.92,2.32 -0.92,0.92 -2.28,0.92 -1.36,0 -2.32,-0.92 -0.92,-0.96 -0.92,-2.32 0,-1.36 0.92,-2.28 0.96,-0.92 2.32,-0.92 1.32,0 2.24,0.96 0.96,0.92 0.96,2.24 z m -0.48,25.36 -5.4,0 0,-20.76 5.4,0 0,20.76 z"
               style=""
               id="path4218" />
            <path
               d="m 592.17868,477.24819 q 0,4.48 -3.12,7.6 -3.08,3.08 -7.56,3.08 -2.88,0 -5.32,-1.4 l 0,12.28 -5.4,0 0,-21.56 q 0,-4.52 3.08,-7.6 3.12,-3.08 7.64,-3.08 4.48,0 7.56,3.12 3.12,3.08 3.12,7.56 z m -5.4,0 q 0,-2.2 -1.56,-3.72 -1.52,-1.56 -3.72,-1.56 -2.2,0 -3.76,1.56 -1.56,1.52 -1.56,3.72 0,2.2 1.56,3.76 1.56,1.52 3.76,1.52 2.2,0 3.72,-1.52 1.56,-1.56 1.56,-3.76 z"
               style=""
               id="path4220" />
            <path
               d="m 633.8593,492.64819 q 0,5.76 -4.72,8.88 -2.72,1.8 -5.96,1.8 -5.68,0 -8.88,-4.76 -1.84,-2.76 -1.84,-5.92 0,-2.08 0.8,-4 l 5,2 q -0.4,0.96 -0.4,2 0,2.2 1.56,3.72 1.56,1.56 3.76,1.56 2.16,0 3.72,-1.56 1.56,-1.56 1.56,-3.72 0,-3.52 -3.32,-4.92 -1,0.2 -2,0.2 -4.52,0 -7.64,-3.08 -3.08,-3.12 -3.08,-7.64 0,-4.48 3.12,-7.56 3.12,-3.12 7.6,-3.12 l 3.12,-7.4 4.24,1.8 -2.8,6.64 q 2.8,1.36 4.44,3.96 1.68,2.6 1.68,5.68 0,4.56 -3.28,7.68 3.32,3.16 3.32,7.76 z m -5.44,-15.44 q 0,-2.16 -1.56,-3.72 -1.56,-1.56 -3.72,-1.56 -2.2,0 -3.76,1.56 -1.56,1.52 -1.56,3.72 0,2.2 1.56,3.76 1.56,1.56 3.76,1.56 2.2,0 3.72,-1.56 1.56,-1.56 1.56,-3.76 z"
               style=""
               id="path4222" />
            <path
               d="m 647.27993,471.92819 q -2.2,0 -3.76,1.56 -1.56,1.52 -1.56,3.72 l 0,10.12 -5.4,0 0,-10.12 q 0,-4.48 3.12,-7.56 3.12,-3.12 7.6,-3.12 l 0,5.4 z"
               style=""
               id="path4224" />
            <path
               d="m 675.6793,487.32819 -5.72,0 -1.16,-3.12 q -3.2,3.76 -8.16,3.76 -4.48,0 -7.6,-3.12 -3.08,-3.12 -3.08,-7.56 0,-3.4 1.92,-6.12 1.92,-2.76 5.12,-3.92 1.88,-0.68 3.68,-0.68 3.4,0 6.12,1.96 2.76,1.92 3.92,5.12 l 4.96,13.68 z m -9.72,-10.04 q 0,-2.8 -2.28,-4.36 -1.32,-0.92 -3.04,-0.92 -2.8,0 -4.32,2.24 -0.96,1.4 -0.96,3.04 0,2.76 2.28,4.32 1.4,0.96 3,0.96 2.2,0 3.76,-1.52 1.56,-1.56 1.56,-3.76 z"
               style=""
               id="path4226" />
            <path
               d="m 696.91305,466.56819 -9.88,20.76 -10,-20.76 6.4,0 3.64,8.52 3.64,-8.52 6.2,0 z"
               style=""
               id="path4228" />
            <path
               d="m 704.08055,461.96819 q 0,1.36 -0.92,2.32 -0.92,0.92 -2.28,0.92 -1.36,0 -2.32,-0.92 -0.92,-0.96 -0.92,-2.32 0,-1.36 0.92,-2.28 0.96,-0.92 2.32,-0.92 1.32,0 2.24,0.96 0.96,0.92 0.96,2.24 z m -0.48,25.36 -5.4,0 0,-20.76 5.4,0 0,20.76 z"
               style=""
               id="path4230" />
            <path
               d="m 717.04555,487.32819 q -4.48,0 -7.6,-3.08 -3.12,-3.12 -3.12,-7.6 l 0,-21 5.4,0 0,10.92 5.32,0 0,4.6 -5.32,0 0,5.48 q 0,2.2 1.56,3.76 1.56,1.52 3.76,1.52 l 0,5.4 z"
               style=""
               id="path4232" />
            <path
               d="m 741.20305,487.52819 q 0,4.52 -3.12,7.6 -3.08,3.08 -7.6,3.08 l 0,-5.4 q 2.2,0 3.76,-1.56 1.56,-1.52 1.56,-3.72 l 0,-0.96 q -2.48,1.4 -5.32,1.4 -4.48,0 -7.6,-3.12 -3.12,-3.12 -3.12,-7.6 l 0,-10.72 5.4,0 0.04,10.72 q 0,2.2 1.52,3.76 1.56,1.56 3.76,1.56 2.2,0 3.76,-1.56 1.56,-1.56 1.56,-3.76 l 0,-10.72 5.4,0 0,21 z"
               style=""
               id="path4234" />
          </g>
          <g
             id="g4244"
             transform="translate(97.307978,-53.023387)">
            <g
               id="g4188"
               transform="translate(-67.200031,294.32784)">
              <g
                 transform="matrix(0,-1,1,0,170.34512,674.16265)"
                 id="g4196">
                <g
                   id="g4198">
                  <g
                     id="g4208"
                     transform="matrix(-1,0,0,-1,799.62424,375.51562)">
                    <g
                       transform="matrix(1.116071,0,0,1.1160724,110.2409,-48.040594)"
                       id="g4210"
                       inkscape:label="Layer 1"
                       style="fill:none;fill-opacity:1;stroke:#00003c;stroke-width:7.67999983;stroke-miterlimit:4;stroke-dasharray:none;stroke-opacity:1">
                      <path
                         sodipodi:nodetypes="ccccccccc"
                         transform="translate(186.78571,306.77441)"
                         id="path4212"
                         d="m 14,-155.1413 -14,14 L 0,50 l 14,14 36,0 14,-14 0,-191.1413 -14,-14 z"
                         style="opacity:1;fill:none;fill-opacity:1;stroke:#00003c;stroke-width:7.67999983;stroke-linecap:round;stroke-linejoin:miter;stroke-miterlimit:4;stroke-dasharray:none;stroke-dashoffset:0;stroke-opacity:1"
                         inkscape:connector-curvature="0" />
                    </g>
                  </g>
                </g>
              </g>
            </g>
            <g
               style="font-style:normal;font-variant:normal;font-weight:normal;font-stretch:normal;font-size:40px;line-height:125%;font-family:moderna;-inkscape-font-specification:'moderna, Normal';text-align:start;letter-spacing:0px;word-spacing:0px;writing-mode:lr-tb;text-anchor:start;fill:#00003c;fill-opacity:1;stroke:none;stroke-width:1px;stroke-linecap:butt;stroke-linejoin:miter;stroke-opacity:1"
               id="text4240">
              <path
                 d="m 200.95555,529.98975 q 0.08,2.72 -1.12,4.72 -2.68,4.4 -9.36,4.64 -3.04,0.12 -6.68,-1.48 l 0.08,-6.04 q 0.6,0.48 1.56,1.12 1.72,1.16 3.88,1.16 5.72,0 5.72,-4.08 l 0,-0.08 q 0,-1.88 -2.08,-3.08 -1.12,-0.64 -4.16,-1.52 -1.2,-0.36 -2.6,-0.88 -4.92,-2.76 -4.92,-8 l 0,-0.24 q 0,-2.4 1.32,-4.48 1.32,-2.12 3.48,-3.28 2.2,-1.2 4.72,-1.28 3.4,-0.08 6.4,1.28 l 0,5.72 q -2.2,-1.92 -5.8,-1.92 -1.32,0 -2.44,0.68 -1.72,1.04 -1.72,3.04 0,2.72 4,3.92 0.72,0.24 2.84,0.88 3.6,1.08 5.16,3.24 1.6,2.16 1.72,5.96 z"
                 style=""
                 id="path4237" />
              <path
                 d="m 223.21742,517.98975 q -0.04,4.48 -3.16,7.56 -3.08,3.08 -7.56,3.08 l -3.36,0 0,10.24 -5.44,0 0,-31.64 8.84,0.04 q 4.52,0.04 7.6,3.16 3.12,3.08 3.08,7.56 z m -5.4,-0.04 q 0.04,-2.24 -1.52,-3.72 -1.52,-1.52 -3.76,-1.56 l -3.44,-0.04 0,10.6 3.4,0 q 2.24,0 3.76,-1.52 1.52,-1.52 1.56,-3.76 z"
                 style=""
                 id="path4239" />
              <path
                 d="m 247.40305,538.86975 -5.48,0 0.04,-12.56 -10.6,0 0,12.56 -5.4,0 0,-20.96 q 0,-4.52 3.08,-7.6 3.12,-3.12 7.64,-3.12 4.48,0 7.6,3.12 3.12,3.12 3.12,7.6 l 0,20.96 z m -5.44,-17.2 0,-3.76 q 0,-2.2 -1.56,-3.76 -1.52,-1.56 -3.72,-1.56 -2.2,0 -3.76,1.56 -1.56,1.56 -1.56,3.76 l 0,3.76 10.6,0 z"
                 style=""
                 id="path4241" />
              <path
                 d="m 271.58367,538.46975 q -2.6,0.92 -5.36,0.92 -6.76,0 -11.44,-4.64 -4.68,-4.68 -4.68,-11.44 0,-6.76 4.68,-11.44 4.68,-4.68 11.44,-4.68 2.76,0 5.36,0.92 l 0,5.96 q -2.48,-1.48 -5.36,-1.48 -4.52,0 -7.64,3.12 -3.08,3.08 -3.08,7.6 0,4.48 3.12,7.6 3.12,3.08 7.6,3.08 2.88,0 5.36,-1.44 l 0,5.92 z"
                 style=""
                 id="path4243" />
              <path
                 d="m 289.08242,538.86975 -14.76,0 0,-31.68 14.76,0 0,4.64 -9.32,0 0,6.28 9.32,0 0,5.64 -9.32,0 0,10.48 9.32,0 0,4.64 z"
                 style=""
                 id="path4245" />
            </g>
          </g>
        </g>
      </g>
    </g>
  </g>
</svg>
