<?xml version="1.0" encoding="UTF-8" standalone="no"?>
<!-- Created with Inkscape (http://www.inkscape.org/) -->

<svg
   xmlns:dc="http://purl.org/dc/elements/1.1/"
   xmlns:cc="http://creativecommons.org/ns#"
   xmlns:rdf="http://www.w3.org/1999/02/22-rdf-syntax-ns#"
   xmlns:svg="http://www.w3.org/2000/svg"
   xmlns="http://www.w3.org/2000/svg"
   xmlns:sodipodi="http://sodipodi.sourceforge.net/DTD/sodipodi-0.dtd"
   xmlns:inkscape="http://www.inkscape.org/namespaces/inkscape"
   width="1024"
   height="1024"
   viewBox="0 0 1024 1024"
   id="svg2"
   version="1.1"
   inkscape:version="0.91 r13725"
   sodipodi:docname="instructions.svg">
  <defs
     id="defs4" />
  <sodipodi:namedview
     id="base"
     pagecolor="#ffffff"
     bordercolor="#666666"
     borderopacity="1.0"
     inkscape:pageopacity="0.0"
     inkscape:pageshadow="2"
     inkscape:zoom="0.49497475"
     inkscape:cx="116.21022"
     inkscape:cy="520"
     inkscape:document-units="px"
     inkscape:current-layer="layer1"
     showgrid="false"
     units="px"
     fit-margin-top="0"
     fit-margin-left="0"
     fit-margin-right="0"
     fit-margin-bottom="0"
     inkscape:window-width="1440"
     inkscape:window-height="800"
     inkscape:window-x="0"
     inkscape:window-y="1"
     inkscape:window-maximized="1" />
  <metadata
     id="metadata7">
    <rdf:RDF>
      <cc:Work
         rdf:about="">
        <dc:format>image/svg+xml</dc:format>
        <dc:type
           rdf:resource="http://purl.org/dc/dcmitype/StillImage" />
        <dc:title />
      </cc:Work>
    </rdf:RDF>
  </metadata>
  <g
     inkscape:label="Layer 1"
     inkscape:groupmode="layer"
     id="layer1"
     transform="translate(0,-28.36218)">
    <text
       xml:space="preserve"
       style="font-style:normal;font-variant:normal;font-weight:normal;font-stretch:normal;font-size:40px;line-height:125%;font-family:moderna;-inkscape-font-specification:'moderna, Normal';text-align:start;letter-spacing:0px;word-spacing:0px;writing-mode:lr-tb;text-anchor:start;fill:#000000;fill-opacity:1;stroke:none;stroke-width:1px;stroke-linecap:butt;stroke-linejoin:miter;stroke-opacity:1"
       x="290.92392"
       y="415.96609"
       id="text4155"
       sodipodi:linespacing="125%"><tspan
         sodipodi:role="line"
         id="tspan4157"
         x="290.92392"
         y="415.96609" /></text>
    <g
       id="g4237"
       transform="translate(0,64.032992)">
      <path
         inkscape:connector-curvature="0"
         d="m 512,523.26138 c -26.40248,0 -47.80926,21.4145 -47.80926,47.80926 0,26.41019 21.40679,47.80927 47.80926,47.80927 26.40247,0 47.80926,-21.39908 47.80926,-47.80927 0,-26.39476 -21.40679,-47.80926 -47.80926,-47.80926 z m 0,21.20572 c 4.47171,0 8.09672,3.62502 8.09672,8.09673 0,4.47171 -3.62501,8.09673 -8.09672,8.09673 -4.47171,0 -8.09673,-3.62502 -8.09673,-8.09673 0,-4.47171 3.62502,-8.09673 8.09673,-8.09673 z m 10.79565,48.96594 c 0,1.27755 -1.03581,2.31336 -2.31335,2.31336 l -16.9646,0 c -1.27754,0 -2.31335,-1.03581 -2.31335,-2.31336 l 0,-4.6267 c 0,-1.27755 1.03581,-2.31335 2.31335,-2.31335 l 2.31336,0 0,-12.33788 -2.31336,0 c -1.27754,0 -2.31335,-1.0358 -2.31335,-2.31334 l 0,-4.62671 c 0,-1.27755 1.03581,-2.31335 2.31335,-2.31335 l 12.33789,0 c 1.27755,0 2.31335,1.0358 2.31335,2.31335 l 0,19.27793 2.31336,0 c 1.27754,0 2.31335,1.0358 2.31335,2.31335 l 0,4.6267 z"
         id="path4"
         style="fill:#00003c;fill-opacity:1" />
      <g
         style="font-style:normal;font-variant:normal;font-weight:normal;font-stretch:normal;font-size:40px;line-height:125%;font-family:moderna;-inkscape-font-specification:'moderna, Normal';text-align:start;letter-spacing:0px;word-spacing:0px;writing-mode:lr-tb;text-anchor:start;fill:#00003c;fill-opacity:1;stroke:none;stroke-width:1px;stroke-linecap:butt;stroke-linejoin:miter;stroke-opacity:1"
         id="text4221">
        <path
           d="m 502.28439,338.41847 -8.12,0 0,27.04 -5.44,0 0,-27.04 -8.12,0 0,-4.64 21.68,0 0,4.64 z"
           style="text-align:center;text-anchor:middle;fill:#00003c;fill-opacity:1"
           id="path4187" />
        <path
           d="m 510.96626,340.09847 q 0,1.36 -0.92,2.32 -0.92,0.92 -2.28,0.92 -1.36,0 -2.32,-0.92 -0.92,-0.96 -0.92,-2.32 0,-1.36 0.92,-2.28 0.96,-0.92 2.32,-0.92 1.32,0 2.24,0.96 0.96,0.92 0.96,2.24 z m -0.48,25.36 -5.4,0 0,-20.76 5.4,0 0,20.76 z"
           style="text-align:center;text-anchor:middle;fill:#00003c;fill-opacity:1"
           id="path4189" />
        <path
           d="m 534.61126,355.37847 q 0,4.48 -3.12,7.6 -3.08,3.08 -7.56,3.08 -2.88,0 -5.32,-1.4 l 0,12.28 -5.4,0 0,-21.56 q 0,-4.52 3.08,-7.6 3.12,-3.08 7.64,-3.08 4.48,0 7.56,3.12 3.12,3.08 3.12,7.56 z m -5.4,0 q 0,-2.2 -1.56,-3.72 -1.52,-1.56 -3.72,-1.56 -2.2,0 -3.76,1.56 -1.56,1.52 -1.56,3.72 0,2.2 1.56,3.76 1.56,1.52 3.76,1.52 2.2,0 3.72,-1.52 1.56,-1.56 1.56,-3.76 z"
           style="text-align:center;text-anchor:middle;fill:#00003c;fill-opacity:1"
           id="path4191" />
        <path
           d="m 543.79189,349.65847 q 0,1.36 -0.92,2.32 -0.92,0.92 -2.28,0.92 -1.36,0 -2.32,-0.92 -0.92,-0.96 -0.92,-2.32 0,-1.36 0.92,-2.28 0.96,-0.92 2.32,-0.92 1.32,0 2.24,0.96 0.96,0.92 0.96,2.24 z m 0,12.56 q 0,1.36 -0.92,2.32 -0.92,0.92 -2.28,0.92 -1.36,0 -2.32,-0.92 -0.92,-0.96 -0.92,-2.32 0,-1.36 0.92,-2.28 0.96,-0.92 2.32,-0.92 1.32,0 2.24,0.96 0.96,0.92 0.96,2.24 z"
           style="text-align:center;text-anchor:middle;fill:#00003c;fill-opacity:1"
           id="path4193" />
        <path
           d="m 314.69126,415.45847 -5.4,0 0,-15.12 -10.68,0 0,15.12 -5.4,0 0,-31.68 5.4,0 0,10.92 10.68,0 0,-10.92 5.4,0 0,31.68 z"
           style="text-align:center;text-anchor:middle;fill:#00003c;fill-opacity:1"
           id="path4195" />
        <path
           d="m 338.83001,405.33847 q 0,4.48 -3.12,7.6 -3.08,3.12 -7.56,3.12 -4.52,0 -7.64,-3.08 -3.08,-3.12 -3.08,-7.64 0,-4.48 3.12,-7.56 3.12,-3.12 7.6,-3.12 4.48,0 7.56,3.12 3.12,3.08 3.12,7.56 z m -5.4,0 q 0,-2.16 -1.56,-3.72 -1.56,-1.56 -3.72,-1.56 -2.2,0 -3.76,1.56 -1.56,1.52 -1.56,3.72 0,2.2 1.56,3.76 1.56,1.56 3.76,1.56 2.2,0 3.72,-1.56 1.56,-1.56 1.56,-3.76 z"
           style="text-align:center;text-anchor:middle;fill:#00003c;fill-opacity:1"
           id="path4197" />
        <path
           d="m 360.04876,394.69847 -9.88,20.76 -10,-20.76 6.4,0 3.64,8.52 3.64,-8.52 6.2,0 z"
           style="text-align:center;text-anchor:middle;fill:#00003c;fill-opacity:1"
           id="path4199" />
        <path
           d="m 382.73626,405.33847 q 0,0.8 -0.12,1.6 l -15.64,0 q 0.52,1.68 1.92,2.72 1.4,1 3.16,1 2.44,0 4.04,-1.88 l 3.28,4.36 q -3.08,2.92 -7.32,2.92 -4.52,0 -7.64,-3.08 -3.08,-3.12 -3.08,-7.64 0,-4.48 3.12,-7.56 3.12,-3.12 7.6,-3.12 4.48,0 7.56,3.12 3.12,3.08 3.12,7.56 z m -6.04,-2.44 q -1.48,-2.84 -4.64,-2.84 -3.2,0 -4.68,2.84 l 9.32,0 z m 5.92,4 0,0 z"
           style="text-align:center;text-anchor:middle;fill:#00003c;fill-opacity:1"
           id="path4201" />
        <path
           d="m 396.27501,400.05847 q -2.2,0 -3.76,1.56 -1.56,1.52 -1.56,3.72 l 0,10.12 -5.4,0 0,-10.12 q 0,-4.48 3.12,-7.56 3.12,-3.12 7.6,-3.12 l 0,5.4 z"
           style="text-align:center;text-anchor:middle;fill:#00003c;fill-opacity:1"
           id="path4203" />
        <path
           d="m 437.81439,405.33847 q 0,4.48 -3.12,7.6 -3.08,3.12 -7.56,3.12 -4.52,0 -7.64,-3.08 -3.08,-3.12 -3.08,-7.64 0,-4.48 3.12,-7.56 3.12,-3.12 7.6,-3.12 4.48,0 7.56,3.12 3.12,3.08 3.12,7.56 z m -5.4,0 q 0,-2.16 -1.56,-3.72 -1.56,-1.56 -3.72,-1.56 -2.2,0 -3.76,1.56 -1.56,1.52 -1.56,3.72 0,2.2 1.56,3.76 1.56,1.56 3.76,1.56 2.2,0 3.72,-1.56 1.56,-1.56 1.56,-3.76 z"
           style="text-align:center;text-anchor:middle;fill:#00003c;fill-opacity:1"
           id="path4205" />
        <path
           d="m 459.03314,394.69847 -9.88,20.76 -10,-20.76 6.4,0 3.64,8.52 3.64,-8.52 6.2,0 z"
           style="text-align:center;text-anchor:middle;fill:#00003c;fill-opacity:1"
           id="path4207" />
        <path
           d="m 481.72064,405.33847 q 0,0.8 -0.12,1.6 l -15.64,0 q 0.52,1.68 1.92,2.72 1.4,1 3.16,1 2.44,0 4.04,-1.88 l 3.28,4.36 q -3.08,2.92 -7.32,2.92 -4.52,0 -7.64,-3.08 -3.08,-3.12 -3.08,-7.64 0,-4.48 3.12,-7.56 3.12,-3.12 7.6,-3.12 4.48,0 7.56,3.12 3.12,3.08 3.12,7.56 z m -6.04,-2.44 q -1.48,-2.84 -4.64,-2.84 -3.2,0 -4.68,2.84 l 9.32,0 z m 5.92,4 0,0 z"
           style="text-align:center;text-anchor:middle;fill:#00003c;fill-opacity:1"
           id="path4209" />
        <path
           d="m 495.25939,400.05847 q -2.2,0 -3.76,1.56 -1.56,1.52 -1.56,3.72 l 0,10.12 -5.4,0 0,-10.12 q 0,-4.48 3.12,-7.56 3.12,-3.12 7.6,-3.12 l 0,5.4 z"
           style="text-align:center;text-anchor:middle;fill:#00003c;fill-opacity:1"
           id="path4211" />
        <path
           d="m 526.11876,415.45847 q -4.48,0 -7.6,-3.08 -3.12,-3.12 -3.12,-7.6 l 0,-21 5.4,0 0,10.92 5.32,0 0,4.6 -5.32,0 0,5.48 q 0,2.2 1.56,3.76 1.56,1.52 3.76,1.52 l 0,5.4 z"
           style="text-align:center;text-anchor:middle;fill:#00003c;fill-opacity:1"
           id="path4213" />
        <path
           d="m 550.27626,415.45847 -5.4,0 -0.04,-10.12 q 0,-2.16 -1.56,-3.72 -1.56,-1.56 -3.72,-1.56 -2.2,0 -3.76,1.56 -1.56,1.52 -1.56,3.72 l 0,10.12 -5.4,0 0,-31.68 5.4,0 0,12.28 q 2.48,-1.4 5.32,-1.4 4.48,0 7.6,3.12 3.12,3.08 3.12,7.56 l 0,10.12 z"
           style="text-align:center;text-anchor:middle;fill:#00003c;fill-opacity:1"
           id="path4215" />
        <path
           d="m 574.37689,405.33847 q 0,0.8 -0.12,1.6 l -15.64,0 q 0.52,1.68 1.92,2.72 1.4,1 3.16,1 2.44,0 4.04,-1.88 l 3.28,4.36 q -3.08,2.92 -7.32,2.92 -4.52,0 -7.64,-3.08 -3.08,-3.12 -3.08,-7.64 0,-4.48 3.12,-7.56 3.12,-3.12 7.6,-3.12 4.48,0 7.56,3.12 3.12,3.08 3.12,7.56 z m -6.04,-2.44 q -1.48,-2.84 -4.64,-2.84 -3.2,0 -4.68,2.84 l 9.32,0 z m 5.92,4 0,0 z"
           style="text-align:center;text-anchor:middle;fill:#00003c;fill-opacity:1"
           id="path4217" />
        <path
           d="m 616.09564,405.33847 q 0,4.48 -3.12,7.6 -3.08,3.12 -7.56,3.12 -4.52,0 -7.64,-3.08 -3.08,-3.12 -3.08,-7.64 l 0,-21.56 5.4,0 0,12.28 q 2.44,-1.4 5.32,-1.4 4.48,0 7.56,3.12 3.12,3.08 3.12,7.56 z m -5.4,0 q 0,-2.16 -1.56,-3.72 -1.56,-1.56 -3.72,-1.56 -2.2,0 -3.76,1.56 -1.56,1.52 -1.56,3.72 0,2.2 1.56,3.76 1.56,1.56 3.76,1.56 2.2,0 3.72,-1.56 1.56,-1.56 1.56,-3.76 z"
           style="text-align:center;text-anchor:middle;fill:#00003c;fill-opacity:1"
           id="path4219" />
        <path
           d="m 640.23626,405.33847 q 0,4.48 -3.12,7.6 -3.08,3.12 -7.56,3.12 -4.52,0 -7.64,-3.08 -3.08,-3.12 -3.08,-7.64 0,-4.48 3.12,-7.56 3.12,-3.12 7.6,-3.12 4.48,0 7.56,3.12 3.12,3.08 3.12,7.56 z m -5.4,0 q 0,-2.16 -1.56,-3.72 -1.56,-1.56 -3.72,-1.56 -2.2,0 -3.76,1.56 -1.56,1.52 -1.56,3.72 0,2.2 1.56,3.76 1.56,1.56 3.76,1.56 2.2,0 3.72,-1.56 1.56,-1.56 1.56,-3.76 z"
           style="text-align:center;text-anchor:middle;fill:#00003c;fill-opacity:1"
           id="path4221" />
        <path
           d="m 653.77501,415.45847 q -4.48,0 -7.6,-3.08 -3.12,-3.12 -3.12,-7.6 l 0,-21 5.4,0 0,10.92 5.32,0 0,4.6 -5.32,0 0,5.48 q 0,2.2 1.56,3.76 1.56,1.52 3.76,1.52 l 0,5.4 z"
           style="text-align:center;text-anchor:middle;fill:#00003c;fill-opacity:1"
           id="path4223" />
        <path
           d="m 667.21251,415.45847 q -4.48,0 -7.6,-3.08 -3.12,-3.12 -3.12,-7.6 l 0,-21 5.4,0 0,10.92 5.32,0 0,4.6 -5.32,0 0,5.48 q 0,2.2 1.56,3.76 1.56,1.52 3.76,1.52 l 0,5.4 z"
           style="text-align:center;text-anchor:middle;fill:#00003c;fill-opacity:1"
           id="path4225" />
        <path
           d="m 691.33001,405.33847 q 0,4.48 -3.12,7.6 -3.08,3.12 -7.56,3.12 -4.52,0 -7.64,-3.08 -3.08,-3.12 -3.08,-7.64 0,-4.48 3.12,-7.56 3.12,-3.12 7.6,-3.12 4.48,0 7.56,3.12 3.12,3.08 3.12,7.56 z m -5.4,0 q 0,-2.16 -1.56,-3.72 -1.56,-1.56 -3.72,-1.56 -2.2,0 -3.76,1.56 -1.56,1.52 -1.56,3.72 0,2.2 1.56,3.76 1.56,1.56 3.76,1.56 2.2,0 3.72,-1.56 1.56,-1.56 1.56,-3.76 z"
           style="text-align:center;text-anchor:middle;fill:#00003c;fill-opacity:1"
           id="path4227" />
        <path
           d="m 730.78876,415.45847 -5.4,0 -0.04,-10.12 q 0,-2.2 -1.56,-3.72 -1.52,-1.56 -3.72,-1.56 -2.96,0 -4.52,2.52 l 0.04,0.04 0,12.84 -5.4,0 -0.04,-10.12 q 0,-2.16 -1.56,-3.72 -1.56,-1.56 -3.72,-1.56 -2.2,0 -3.76,1.56 -1.56,1.52 -1.56,3.72 l 0,10.12 -5.4,0 0,-10.12 q 0,-4.48 3.12,-7.56 3.12,-3.12 7.6,-3.12 4.44,0 7.6,3.2 3.16,-3.2 7.6,-3.2 4.48,0 7.6,3.12 3.12,3.08 3.12,7.56 l 0,10.12 z"
           style="text-align:center;text-anchor:middle;fill:#00003c;fill-opacity:1"
           id="path4229" />
        <path
           d="m 311.50939,465.45847 q -4.48,0 -7.6,-3.08 -3.12,-3.12 -3.12,-7.6 l 0,-21 5.4,0 0,10.92 5.32,0 0,4.6 -5.32,0 0,5.48 q 0,2.2 1.56,3.76 1.56,1.52 3.76,1.52 l 0,5.4 z"
           style="text-align:center;text-anchor:middle;fill:#00003c;fill-opacity:1"
           id="path4231" />
        <path
           d="m 335.62689,455.33847 q 0,4.48 -3.12,7.6 -3.08,3.12 -7.56,3.12 -4.52,0 -7.64,-3.08 -3.08,-3.12 -3.08,-7.64 0,-4.48 3.12,-7.56 3.12,-3.12 7.6,-3.12 4.48,0 7.56,3.12 3.12,3.08 3.12,7.56 z m -5.4,0 q 0,-2.16 -1.56,-3.72 -1.56,-1.56 -3.72,-1.56 -2.2,0 -3.76,1.56 -1.56,1.52 -1.56,3.72 0,2.2 1.56,3.76 1.56,1.56 3.76,1.56 2.2,0 3.72,-1.56 1.56,-1.56 1.56,-3.76 z"
           style="text-align:center;text-anchor:middle;fill:#00003c;fill-opacity:1"
           id="path4233" />
        <path
           d="m 366.66564,450.05847 q -2.2,0 -3.76,1.56 -1.56,1.52 -1.56,3.72 l 0,10.12 -5.4,0 0,-10.12 q 0,-4.48 3.12,-7.56 3.12,-3.12 7.6,-3.12 l 0,5.4 z"
           style="text-align:center;text-anchor:middle;fill:#00003c;fill-opacity:1"
           id="path4235" />
        <path
           d="m 390.70501,455.33847 q 0,0.8 -0.12,1.6 l -15.64,0 q 0.52,1.68 1.92,2.72 1.4,1 3.16,1 2.44,0 4.04,-1.88 l 3.28,4.36 q -3.08,2.92 -7.32,2.92 -4.52,0 -7.64,-3.08 -3.08,-3.12 -3.08,-7.64 0,-4.48 3.12,-7.56 3.12,-3.12 7.6,-3.12 4.48,0 7.56,3.12 3.12,3.08 3.12,7.56 z m -6.04,-2.44 q -1.48,-2.84 -4.64,-2.84 -3.2,0 -4.68,2.84 l 9.32,0 z m 5.92,4 0,0 z"
           style="text-align:center;text-anchor:middle;fill:#00003c;fill-opacity:1"
           id="path4237" />
        <path
           d="m 411.92376,444.69847 -9.88,20.76 -10,-20.76 6.4,0 3.64,8.52 3.64,-8.52 6.2,0 z"
           style="text-align:center;text-anchor:middle;fill:#00003c;fill-opacity:1"
           id="path4239" />
        <path
           d="m 434.61126,455.33847 q 0,0.8 -0.12,1.6 l -15.64,0 q 0.52,1.68 1.92,2.72 1.4,1 3.16,1 2.44,0 4.04,-1.88 l 3.28,4.36 q -3.08,2.92 -7.32,2.92 -4.52,0 -7.64,-3.08 -3.08,-3.12 -3.08,-7.64 0,-4.48 3.12,-7.56 3.12,-3.12 7.6,-3.12 4.48,0 7.56,3.12 3.12,3.08 3.12,7.56 z m -6.04,-2.44 q -1.48,-2.84 -4.64,-2.84 -3.2,0 -4.68,2.84 l 9.32,0 z m 5.92,4 0,0 z"
           style="text-align:center;text-anchor:middle;fill:#00003c;fill-opacity:1"
           id="path4241" />
        <path
           d="m 463.19001,465.45847 -5.72,0 -1.16,-3.12 q -3.2,3.76 -8.16,3.76 -4.48,0 -7.6,-3.12 -3.08,-3.12 -3.08,-7.56 0,-3.4 1.92,-6.12 1.92,-2.76 5.12,-3.92 1.88,-0.68 3.68,-0.68 3.4,0 6.12,1.96 2.76,1.92 3.92,5.12 l 4.96,13.68 z m -9.72,-10.04 q 0,-2.8 -2.28,-4.36 -1.32,-0.92 -3.04,-0.92 -2.8,0 -4.32,2.24 -0.96,1.4 -0.96,3.04 0,2.76 2.28,4.32 1.4,0.96 3,0.96 2.2,0 3.76,-1.52 1.56,-1.56 1.56,-3.76 z"
           style="text-align:center;text-anchor:middle;fill:#00003c;fill-opacity:1"
           id="path4243" />
        <path
           d="m 471.42376,465.45847 -5.4,0 0,-31.68 5.4,0 0,31.68 z"
           style="text-align:center;text-anchor:middle;fill:#00003c;fill-opacity:1"
           id="path4245" />
        <path
           d="m 502.36876,465.45847 q -4.48,0 -7.6,-3.08 -3.12,-3.12 -3.12,-7.6 l 0,-21 5.4,0 0,10.92 5.32,0 0,4.6 -5.32,0 0,5.48 q 0,2.2 1.56,3.76 1.56,1.52 3.76,1.52 l 0,5.4 z"
           style="text-align:center;text-anchor:middle;fill:#00003c;fill-opacity:1"
           id="path4247" />
        <path
           d="m 526.52626,465.45847 -5.4,0 -0.04,-10.12 q 0,-2.16 -1.56,-3.72 -1.56,-1.56 -3.72,-1.56 -2.2,0 -3.76,1.56 -1.56,1.52 -1.56,3.72 l 0,10.12 -5.4,0 0,-31.68 5.4,0 0,12.28 q 2.48,-1.4 5.32,-1.4 4.48,0 7.6,3.12 3.12,3.08 3.12,7.56 l 0,10.12 z"
           style="text-align:center;text-anchor:middle;fill:#00003c;fill-opacity:1"
           id="path4249" />
        <path
           d="m 550.62689,455.33847 q 0,0.8 -0.12,1.6 l -15.64,0 q 0.52,1.68 1.92,2.72 1.4,1 3.16,1 2.44,0 4.04,-1.88 l 3.28,4.36 q -3.08,2.92 -7.32,2.92 -4.52,0 -7.64,-3.08 -3.08,-3.12 -3.08,-7.64 0,-4.48 3.12,-7.56 3.12,-3.12 7.6,-3.12 4.48,0 7.56,3.12 3.12,3.08 3.12,7.56 z m -6.04,-2.44 q -1.48,-2.84 -4.64,-2.84 -3.2,0 -4.68,2.84 l 9.32,0 z m 5.92,4 0,0 z"
           style="text-align:center;text-anchor:middle;fill:#00003c;fill-opacity:1"
           id="path4251" />
        <path
           d="m 587.18564,459.33847 q 0,1.92 -1.28,3.48 -2.56,3.12 -7.28,3 -1.88,-0.04 -4.12,-0.84 -2.2,-0.8 -3.6,-2 l 3,-3.88 q 2.16,2.04 4.6,2.04 l 0.12,0 q 1,0 1.8,-0.36 1.04,-0.48 1.04,-1.36 l 0,-0.16 q -0.12,-0.92 -1.24,-1.32 -0.44,-0.08 -1.88,-0.36 -1.8,-0.36 -3.04,-0.88 -3.64,-1.56 -3.64,-5.48 0,-3.76 3.72,-5.64 1.64,-0.84 3.56,-0.88 2,-0.04 4.16,0.68 2.48,0.84 3.52,2.2 l -3.6,3.24 q -1.4,-1.4 -3.04,-1.4 -2.56,0 -2.56,1.68 l 0,0.08 q 0,0.8 2.08,1.36 0.16,0.04 2.64,0.52 5.04,0.96 5.04,6.16 l 0,0.12 z"
           style="text-align:center;text-anchor:middle;fill:#00003c;fill-opacity:1"
           id="path4253" />
        <path
           d="m 611.48626,455.33847 q 0,0.8 -0.12,1.6 l -15.64,0 q 0.52,1.68 1.92,2.72 1.4,1 3.16,1 2.44,0 4.04,-1.88 l 3.28,4.36 q -3.08,2.92 -7.32,2.92 -4.52,0 -7.64,-3.08 -3.08,-3.12 -3.08,-7.64 0,-4.48 3.12,-7.56 3.12,-3.12 7.6,-3.12 4.48,0 7.56,3.12 3.12,3.08 3.12,7.56 z m -6.04,-2.44 q -1.48,-2.84 -4.64,-2.84 -3.2,0 -4.68,2.84 l 9.32,0 z m 5.92,4 0,0 z"
           style="text-align:center;text-anchor:middle;fill:#00003c;fill-opacity:1"
           id="path4255" />
        <path
           d="m 625.02501,465.45847 q -4.48,0 -7.6,-3.08 -3.12,-3.12 -3.12,-7.6 l 0,-21 5.4,0 0,10.92 5.32,0 0,4.6 -5.32,0 0,5.48 q 0,2.2 1.56,3.76 1.56,1.52 3.76,1.52 l 0,5.4 z"
           style="text-align:center;text-anchor:middle;fill:#00003c;fill-opacity:1"
           id="path4257" />
        <path
           d="m 638.46251,465.45847 q -4.48,0 -7.6,-3.08 -3.12,-3.12 -3.12,-7.6 l 0,-21 5.4,0 0,10.92 5.32,0 0,4.6 -5.32,0 0,5.48 q 0,2.2 1.56,3.76 1.56,1.52 3.76,1.52 l 0,5.4 z"
           style="text-align:center;text-anchor:middle;fill:#00003c;fill-opacity:1"
           id="path4259" />
        <path
           d="m 647.06001,440.09847 q 0,1.36 -0.92,2.32 -0.92,0.92 -2.28,0.92 -1.36,0 -2.32,-0.92 -0.92,-0.96 -0.92,-2.32 0,-1.36 0.92,-2.28 0.96,-0.92 2.32,-0.92 1.32,0 2.24,0.96 0.96,0.92 0.96,2.24 z m -0.48,25.36 -5.4,0 0,-20.76 5.4,0 0,20.76 z"
           style="text-align:center;text-anchor:middle;fill:#00003c;fill-opacity:1"
           id="path4261" />
        <path
           d="m 670.74501,465.45847 -5.4,0 -0.04,-10.12 q 0,-2.16 -1.56,-3.72 -1.56,-1.56 -3.72,-1.56 -2.2,0 -3.76,1.56 -1.56,1.52 -1.56,3.72 l 0,10.12 -5.4,0 0,-10.12 q 0,-4.48 3.12,-7.56 3.12,-3.12 7.6,-3.12 4.48,0 7.6,3.12 3.12,3.08 3.12,7.56 l 0,10.12 z"
           style="text-align:center;text-anchor:middle;fill:#00003c;fill-opacity:1"
           id="path4263" />
        <path
           d="m 694.88564,470.77847 q 0,5.76 -4.72,8.88 -2.72,1.8 -5.96,1.8 -5.68,0 -8.88,-4.76 -1.84,-2.76 -1.84,-5.92 0,-2.08 0.8,-4 l 5,2 q -0.4,0.96 -0.4,2 0,2.2 1.56,3.72 1.56,1.56 3.76,1.56 2.16,0 3.72,-1.56 1.56,-1.56 1.56,-3.72 0,-3.52 -3.32,-4.92 -1,0.2 -2,0.2 -4.52,0 -7.64,-3.08 -3.08,-3.12 -3.08,-7.64 0,-4.48 3.12,-7.56 3.12,-3.12 7.6,-3.12 l 3.12,-7.4 4.24,1.8 -2.8,6.64 q 2.8,1.36 4.44,3.96 1.68,2.6 1.68,5.68 0,4.56 -3.28,7.68 3.32,3.16 3.32,7.76 z m -5.44,-15.44 q 0,-2.16 -1.56,-3.72 -1.56,-1.56 -3.72,-1.56 -2.2,0 -3.76,1.56 -1.56,1.52 -1.56,3.72 0,2.2 1.56,3.76 1.56,1.56 3.76,1.56 2.2,0 3.72,-1.56 1.56,-1.56 1.56,-3.76 z"
           style="text-align:center;text-anchor:middle;fill:#00003c;fill-opacity:1"
           id="path4265" />
        <path
           d="m 713.82626,459.33847 q 0,1.92 -1.28,3.48 -2.56,3.12 -7.28,3 -1.88,-0.04 -4.12,-0.84 -2.2,-0.8 -3.6,-2 l 3,-3.88 q 2.16,2.04 4.6,2.04 l 0.12,0 q 1,0 1.8,-0.36 1.04,-0.48 1.04,-1.36 l 0,-0.16 q -0.12,-0.92 -1.24,-1.32 -0.44,-0.08 -1.88,-0.36 -1.8,-0.36 -3.04,-0.88 -3.64,-1.56 -3.64,-5.48 0,-3.76 3.72,-5.64 1.64,-0.84 3.56,-0.88 2,-0.04 4.16,0.68 2.48,0.84 3.52,2.2 l -3.6,3.24 q -1.4,-1.4 -3.04,-1.4 -2.56,0 -2.56,1.68 l 0,0.08 q 0,0.8 2.08,1.36 0.16,0.04 2.64,0.52 5.04,0.96 5.04,6.16 l 0,0.12 z"
           style="text-align:center;text-anchor:middle;fill:#00003c;fill-opacity:1"
           id="path4267" />
        <path
           d="m 723.16689,462.21847 q 0,1.36 -0.92,2.32 -0.92,0.92 -2.28,0.92 -1.36,0 -2.32,-0.92 -0.92,-0.96 -0.92,-2.32 0,-1.36 0.92,-2.28 0.96,-0.92 2.32,-0.92 1.32,0 2.24,0.96 0.96,0.92 0.96,2.24 z"
           style="text-align:center;text-anchor:middle;fill:#00003c;fill-opacity:1"
           id="path4269" />
      </g>
    </g>
    <g
       style="font-style:normal;font-variant:normal;font-weight:normal;font-stretch:normal;font-size:40px;line-height:125%;font-family:moderna;-inkscape-font-specification:'moderna, Normal';text-align:start;letter-spacing:0px;word-spacing:0px;writing-mode:lr-tb;text-anchor:start;fill:#00003c;fill-opacity:1;stroke:none;stroke-width:1px;stroke-linecap:butt;stroke-linejoin:miter;stroke-opacity:1"
       id="text4233">
      <path
         d="m 281.70436,894.36925 q 0,1.36 -0.92,2.32 -0.92,0.92 -2.28,0.92 -1.36,0 -2.32,-0.92 -0.92,-0.96 -0.92,-2.32 0,-1.36 0.92,-2.28 0.96,-0.92 2.32,-0.92 1.32,0 2.24,0.96 0.96,0.92 0.96,2.24 z"
         style=""
         id="path4144" />
      <path
         d="m 308.42311,894.36925 q 0,1.36 -0.92,2.32 -0.92,0.92 -2.28,0.92 -1.36,0 -2.32,-0.92 -0.92,-0.96 -0.92,-2.32 0,-1.36 0.92,-2.28 0.96,-0.92 2.32,-0.92 1.32,0 2.24,0.96 0.96,0.92 0.96,2.24 z"
         style=""
         id="path4146" />
      <path
         d="m 335.14186,894.36925 q 0,1.36 -0.92,2.32 -0.92,0.92 -2.28,0.92 -1.36,0 -2.32,-0.92 -0.92,-0.96 -0.92,-2.32 0,-1.36 0.92,-2.28 0.96,-0.92 2.32,-0.92 1.32,0 2.24,0.96 0.96,0.92 0.96,2.24 z"
         style=""
         id="path4148" />
      <path
         d="m 373.54061,907.76925 q -3.12,3 -7.4,3 -4.52,0 -7.64,-3.08 -3.08,-3.12 -3.08,-7.64 0,-4.48 3.12,-7.56 3.12,-3.12 7.6,-3.12 4.08,0 7.12,2.76 l -3.24,4.36 q -1.56,-1.72 -3.88,-1.72 -2.2,0 -3.76,1.56 -1.56,1.52 -1.56,3.72 0,2.2 1.56,3.76 1.56,1.56 3.76,1.56 2.4,0 3.96,-1.84 l 3.44,4.24 z"
         style=""
         id="path4150" />
      <path
         d="m 381.60186,910.16925 -5.4,0 0,-31.68 5.4,0 0,31.68 z"
         style=""
         id="path4152" />
      <path
         d="m 390.20686,884.80925 q 0,1.36 -0.92,2.32 -0.92,0.92 -2.28,0.92 -1.36,0 -2.32,-0.92 -0.92,-0.96 -0.92,-2.32 0,-1.36 0.92,-2.28 0.96,-0.92 2.32,-0.92 1.32,0 2.24,0.96 0.96,0.92 0.96,2.24 z m -0.48,25.36 -5.4,0 0,-20.76 5.4,0 0,20.76 z"
         style=""
         id="path4154" />
      <path
         d="m 410.57186,907.76925 q -3.12,3 -7.4,3 -4.52,0 -7.64,-3.08 -3.08,-3.12 -3.08,-7.64 0,-4.48 3.12,-7.56 3.12,-3.12 7.6,-3.12 4.08,0 7.12,2.76 l -3.24,4.36 q -1.56,-1.72 -3.88,-1.72 -2.2,0 -3.76,1.56 -1.56,1.52 -1.56,3.72 0,2.2 1.56,3.76 1.56,1.56 3.76,1.56 2.4,0 3.96,-1.84 l 3.44,4.24 z"
         style=""
         id="path4156" />
      <path
         d="m 432.75311,910.16925 -5.4,0 -0.04,-2.68 q -0.04,-2.24 -1.56,-3.76 -1.48,-1.52 -3.72,-1.52 l -3.4,0 0,7.96 -5.4,0 0,-31.68 5.4,0 0,18.32 3.4,0 q 2.24,0 3.72,-1.52 1.52,-1.56 1.56,-3.8 l 0.04,-2.08 5.4,0 0,2.08 q 0,4.8 -3.6,8 3.6,3.2 3.6,8 l 0,2.68 z"
         style=""
         id="path4158" />
      <path
         d="m 463.71874,910.16925 q -4.48,0 -7.6,-3.08 -3.12,-3.12 -3.12,-7.6 l 0,-21 5.4,0 0,10.92 5.32,0 0,4.6 -5.32,0 0,5.48 q 0,2.2 1.56,3.76 1.56,1.52 3.76,1.52 l 0,5.4 z"
         style=""
         id="path4160" />
      <path
         d="m 487.83624,900.04925 q 0,4.48 -3.12,7.6 -3.08,3.12 -7.56,3.12 -4.52,0 -7.64,-3.08 -3.08,-3.12 -3.08,-7.64 0,-4.48 3.12,-7.56 3.12,-3.12 7.6,-3.12 4.48,0 7.56,3.12 3.12,3.08 3.12,7.56 z m -5.4,0 q 0,-2.16 -1.56,-3.72 -1.56,-1.56 -3.72,-1.56 -2.2,0 -3.76,1.56 -1.56,1.52 -1.56,3.72 0,2.2 1.56,3.76 1.56,1.56 3.76,1.56 2.2,0 3.72,-1.56 1.56,-1.56 1.56,-3.76 z"
         style=""
         id="path4162" />
      <path
         d="m 526.27499,907.76925 q -3.12,3 -7.4,3 -4.52,0 -7.64,-3.08 -3.08,-3.12 -3.08,-7.64 0,-4.48 3.12,-7.56 3.12,-3.12 7.6,-3.12 4.08,0 7.12,2.76 l -3.24,4.36 q -1.56,-1.72 -3.88,-1.72 -2.2,0 -3.76,1.56 -1.56,1.52 -1.56,3.72 0,2.2 1.56,3.76 1.56,1.56 3.76,1.56 2.4,0 3.96,-1.84 l 3.44,4.24 z"
         style=""
         id="path4164" />
      <path
         d="m 550.33624,900.04925 q 0,4.48 -3.12,7.6 -3.08,3.12 -7.56,3.12 -4.52,0 -7.64,-3.08 -3.08,-3.12 -3.08,-7.64 0,-4.48 3.12,-7.56 3.12,-3.12 7.6,-3.12 4.48,0 7.56,3.12 3.12,3.08 3.12,7.56 z m -5.4,0 q 0,-2.16 -1.56,-3.72 -1.56,-1.56 -3.72,-1.56 -2.2,0 -3.76,1.56 -1.56,1.52 -1.56,3.72 0,2.2 1.56,3.76 1.56,1.56 3.76,1.56 2.2,0 3.72,-1.56 1.56,-1.56 1.56,-3.76 z"
         style=""
         id="path4166" />
      <path
         d="m 574.59499,910.16925 -5.4,0 -0.04,-10.12 q 0,-2.16 -1.56,-3.72 -1.56,-1.56 -3.72,-1.56 -2.2,0 -3.76,1.56 -1.56,1.52 -1.56,3.72 l 0,10.12 -5.4,0 0,-10.12 q 0,-4.48 3.12,-7.56 3.12,-3.12 7.6,-3.12 4.48,0 7.6,3.12 3.12,3.08 3.12,7.56 l 0,10.12 z"
         style=""
         id="path4168" />
      <path
         d="m 588.01561,910.16925 q -4.48,0 -7.6,-3.08 -3.12,-3.12 -3.12,-7.6 l 0,-21 5.4,0 0,10.92 5.32,0 0,4.6 -5.32,0 0,5.48 q 0,2.2 1.56,3.76 1.56,1.52 3.76,1.52 l 0,5.4 z"
         style=""
         id="path4170" />
      <path
         d="m 596.61311,884.80925 q 0,1.36 -0.92,2.32 -0.92,0.92 -2.28,0.92 -1.36,0 -2.32,-0.92 -0.92,-0.96 -0.92,-2.32 0,-1.36 0.92,-2.28 0.96,-0.92 2.32,-0.92 1.32,0 2.24,0.96 0.96,0.92 0.96,2.24 z m -0.48,25.36 -5.4,0 0,-20.76 5.4,0 0,20.76 z"
         style=""
         id="path4172" />
      <path
         d="m 620.29811,910.16925 -5.4,0 -0.04,-10.12 q 0,-2.16 -1.56,-3.72 -1.56,-1.56 -3.72,-1.56 -2.2,0 -3.76,1.56 -1.56,1.52 -1.56,3.72 l 0,10.12 -5.4,0 0,-10.12 q 0,-4.48 3.12,-7.56 3.12,-3.12 7.6,-3.12 4.48,0 7.6,3.12 3.12,3.08 3.12,7.56 l 0,10.12 z"
         style=""
         id="path4174" />
      <path
         d="m 644.43874,900.08925 q 0,4.52 -3.12,7.64 -3.08,3.08 -7.6,3.08 -4.48,0 -7.6,-3.12 -3.12,-3.12 -3.12,-7.6 l 0,-10.68 5.4,0 0.04,10.68 q 0,2.2 1.52,3.76 1.56,1.56 3.76,1.56 2.2,0 3.76,-1.56 1.56,-1.56 1.56,-3.76 l 0,-10.68 5.4,0 0,10.68 z"
         style=""
         id="path4176" />
      <path
         d="m 668.53936,900.04925 q 0,0.8 -0.12,1.6 l -15.64,0 q 0.52,1.68 1.92,2.72 1.4,1 3.16,1 2.44,0 4.04,-1.88 l 3.28,4.36 q -3.08,2.92 -7.32,2.92 -4.52,0 -7.64,-3.08 -3.08,-3.12 -3.08,-7.64 0,-4.48 3.12,-7.56 3.12,-3.12 7.6,-3.12 4.48,0 7.56,3.12 3.12,3.08 3.12,7.56 z m -6.04,-2.44 q -1.48,-2.84 -4.64,-2.84 -3.2,0 -4.68,2.84 l 9.32,0 z m 5.92,4 0,0 z"
         style=""
         id="path4178" />
      <path
         d="m 695.29811,894.36925 q 0,1.36 -0.92,2.32 -0.92,0.92 -2.28,0.92 -1.36,0 -2.32,-0.92 -0.92,-0.96 -0.92,-2.32 0,-1.36 0.92,-2.28 0.96,-0.92 2.32,-0.92 1.32,0 2.24,0.96 0.96,0.92 0.96,2.24 z"
         style=""
         id="path4180" />
      <path
         d="m 722.01686,894.36925 q 0,1.36 -0.92,2.32 -0.92,0.92 -2.28,0.92 -1.36,0 -2.32,-0.92 -0.92,-0.96 -0.92,-2.32 0,-1.36 0.92,-2.28 0.96,-0.92 2.32,-0.92 1.32,0 2.24,0.96 0.96,0.92 0.96,2.24 z"
         style=""
         id="path4182" />
      <path
         d="m 748.73561,894.36925 q 0,1.36 -0.92,2.32 -0.92,0.92 -2.28,0.92 -1.36,0 -2.32,-0.92 -0.92,-0.96 -0.92,-2.32 0,-1.36 0.92,-2.28 0.96,-0.92 2.32,-0.92 1.32,0 2.24,0.96 0.96,0.92 0.96,2.24 z"
         style=""
         id="path4184" />
    </g>
  </g>
</svg>
