<?xml version="1.0" encoding="UTF-8" standalone="no"?>
<!-- Created with Inkscape (http://www.inkscape.org/) -->

<svg
   xmlns:dc="http://purl.org/dc/elements/1.1/"
   xmlns:cc="http://creativecommons.org/ns#"
   xmlns:rdf="http://www.w3.org/1999/02/22-rdf-syntax-ns#"
   xmlns:svg="http://www.w3.org/2000/svg"
   xmlns="http://www.w3.org/2000/svg"
   xmlns:sodipodi="http://sodipodi.sourceforge.net/DTD/sodipodi-0.dtd"
   xmlns:inkscape="http://www.inkscape.org/namespaces/inkscape"
   width="18.062222mm"
   height="18.062222mm"
   viewBox="0 0 63.999998 63.999997"
   id="svg2"
   version="1.1"
   inkscape:version="0.91 r13725"
   sodipodi:docname="block-grey.svg">
  <defs
     id="defs4" />
  <sodipodi:namedview
     id="base"
     pagecolor="#ffffff"
     bordercolor="#666666"
     borderopacity="1.0"
     inkscape:pageopacity="0.0"
     inkscape:pageshadow="2"
     inkscape:zoom="5.6"
     inkscape:cx="34.210867"
     inkscape:cy="22.181208"
     inkscape:document-units="px"
     inkscape:current-layer="layer1"
     showgrid="false"
     fit-margin-top="0"
     fit-margin-left="0"
     fit-margin-right="0"
     fit-margin-bottom="0"
     inkscape:window-width="1440"
     inkscape:window-height="800"
     inkscape:window-x="0"
     inkscape:window-y="1"
     inkscape:window-maximized="1" />
  <metadata
     id="metadata7">
    <rdf:RDF>
      <cc:Work
         rdf:about="">
        <dc:format>image/svg+xml</dc:format>
        <dc:type
           rdf:resource="http://purl.org/dc/dcmitype/StillImage" />
        <dc:title />
      </cc:Work>
    </rdf:RDF>
  </metadata>
  <g
     inkscape:label="Layer 1"
     inkscape:groupmode="layer"
     id="layer1"
     transform="translate(-186.78571,-306.77441)">
    <path
       inkscape:connector-curvature="0"
       id="path4173"
       d="m 186.78571,306.77441 0,14 0,36 0,14 14,0 36,0 14,0 0,-14 0,-36 0,-14 -14,0 -36,0 -14,0 z"
       style="opacity:1;fill:#a0a0a0;fill-opacity:1;stroke:none;stroke-width:0;stroke-linecap:round;stroke-linejoin:miter;stroke-miterlimit:4;stroke-dasharray:none;stroke-dashoffset:0;stroke-opacity:1" />
    <path
       style="opacity:1;fill:#c8c8c8;fill-opacity:1;stroke:none;stroke-width:0;stroke-linecap:round;stroke-linejoin:miter;stroke-miterlimit:4;stroke-dasharray:none;stroke-dashoffset:0;stroke-opacity:1"
       d="m 186.78571,306.77441 0,13.34375 0,34.3125 0,13.34375 13.34375,0 34.3125,0 13.34375,0 0,-13.34375 0,-34.3125 0,-13.34375 -13.34375,0 -34.3125,0 -13.34375,0 z"
       id="path4136"
       inkscape:connector-curvature="0" />
    <path
       style="opacity:1;fill:#8c8c8c;fill-opacity:1;stroke:none;stroke-width:0;stroke-linecap:round;stroke-linejoin:miter;stroke-miterlimit:4;stroke-dasharray:none;stroke-dashoffset:0;stroke-opacity:1"
       d="M 3 3 L 3 16.34375 L 3 50.65625 L 3 64 L 6 64 L 6 60.017578 L 6 21.125 L 6 6 L 24.289062 6 L 64 6 L 64 3 L 50.65625 3 L 16.34375 3 L 3 3 z "
       id="path4153"
       transform="translate(186.78571,306.77441)" />
    <path
       style="opacity:1;fill:#aaaaaa;fill-opacity:1;stroke:none;stroke-width:0;stroke-linecap:round;stroke-linejoin:miter;stroke-miterlimit:4;stroke-dasharray:none;stroke-dashoffset:0;stroke-opacity:1"
       d="m 192.78571,312.77441 0,11.375 0,29.25 0,11.375 11.375,0 29.25,0 11.375,0 0,-11.375 0,-29.25 0,-11.375 -11.375,0 -29.25,0 -11.375,0 z"
       id="path4155"
       inkscape:connector-curvature="0" />
    <path
       id="path4171"
       d="m 250.78571,370.77441 0,-13.34375 0,-34.3125 0,-13.34375 -3,0 0,3.98242 0,38.89258 0,15.125 -18.28906,0 -39.71094,0 0,3 13.34375,0 34.3125,0 13.34375,0 z"
       style="opacity:1;fill:#8c8c8c;fill-opacity:1;stroke:none;stroke-width:0;stroke-linecap:round;stroke-linejoin:miter;stroke-miterlimit:4;stroke-dasharray:none;stroke-dashoffset:0;stroke-opacity:1"
       inkscape:connector-curvature="0" />
  </g>
</svg>
