<?xml version="1.0" encoding="UTF-8" standalone="no"?>
<!-- Created with Inkscape (http://www.inkscape.org/) -->

<svg
   xmlns:dc="http://purl.org/dc/elements/1.1/"
   xmlns:cc="http://creativecommons.org/ns#"
   xmlns:rdf="http://www.w3.org/1999/02/22-rdf-syntax-ns#"
   xmlns:svg="http://www.w3.org/2000/svg"
   xmlns="http://www.w3.org/2000/svg"
   xmlns:sodipodi="http://sodipodi.sourceforge.net/DTD/sodipodi-0.dtd"
   xmlns:inkscape="http://www.inkscape.org/namespaces/inkscape"
   width="1024"
   height="1024"
   viewBox="0 0 1024 1024"
   id="svg2"
   version="1.1"
   inkscape:version="0.91 r13725"
   sodipodi:docname="instructions.svg">
  <defs
     id="defs4" />
  <sodipodi:namedview
     id="base"
     pagecolor="#ffffff"
     bordercolor="#666666"
     borderopacity="1.0"
     inkscape:pageopacity="0.0"
     inkscape:pageshadow="2"
     inkscape:zoom="0.69882038"
     inkscape:cx="384.06786"
     inkscape:cy="465.20647"
     inkscape:document-units="px"
     inkscape:current-layer="g4237"
     showgrid="false"
     units="px"
     fit-margin-top="0"
     fit-margin-left="0"
     fit-margin-right="0"
     fit-margin-bottom="0"
     inkscape:window-width="1440"
     inkscape:window-height="800"
     inkscape:window-x="10"
     inkscape:window-y="0"
     inkscape:window-maximized="0" />
  <metadata
     id="metadata7">
    <rdf:RDF>
      <cc:Work
         rdf:about="">
        <dc:format>image/svg+xml</dc:format>
        <dc:type
           rdf:resource="http://purl.org/dc/dcmitype/StillImage" />
        <dc:title />
      </cc:Work>
    </rdf:RDF>
  </metadata>
  <g
     inkscape:label="Layer 1"
     inkscape:groupmode="layer"
     id="layer1"
     transform="translate(0,-28.36218)">
    <text
       xml:space="preserve"
       style="font-style:normal;font-variant:normal;font-weight:normal;font-stretch:normal;font-size:40px;line-height:125%;font-family:moderna;-inkscape-font-specification:'moderna, Normal';text-align:start;letter-spacing:0px;word-spacing:0px;writing-mode:lr-tb;text-anchor:start;fill:#000000;fill-opacity:1;stroke:none;stroke-width:1px;stroke-linecap:butt;stroke-linejoin:miter;stroke-opacity:1"
       x="290.92392"
       y="415.96609"
       id="text4155"
       sodipodi:linespacing="125%"><tspan
         sodipodi:role="line"
         id="tspan4157"
         x="290.92392"
         y="415.96609" /></text>
    <g
       id="g4237"
       transform="translate(0,64.032992)">
      <g
         id="g4309"
         transform="translate(0,152.29461)">
        <g
           id="g4274">
          <g
             style="font-style:normal;font-variant:normal;font-weight:normal;font-stretch:normal;font-size:40px;line-height:125%;font-family:moderna;-inkscape-font-specification:'moderna, Normal';text-align:start;letter-spacing:0px;word-spacing:0px;writing-mode:lr-tb;text-anchor:start;fill:#00003c;fill-opacity:1;stroke:none;stroke-width:1px;stroke-linecap:butt;stroke-linejoin:miter;stroke-opacity:1"
             id="text4221"
             transform="translate(-8.2438077,-80.135042)">
            <text
               xml:space="preserve"
               style="font-style:normal;font-variant:normal;font-weight:normal;font-stretch:normal;font-size:40px;line-height:125%;font-family:moderna;-inkscape-font-specification:'moderna, Normal';text-align:start;letter-spacing:0px;word-spacing:0px;writing-mode:lr-tb;text-anchor:start;fill:#000000;fill-opacity:1;stroke:none;stroke-width:1px;stroke-linecap:butt;stroke-linejoin:miter;stroke-opacity:1"
               x="380.64145"
               y="318.0401"
               id="text4357"
               sodipodi:linespacing="125%"><tspan
                 sodipodi:role="line"
                 id="tspan4359"
                 x="380.64145"
                 y="318.0401"
                 style="fill:#00003c;fill-opacity:1">Control player movement</tspan></text>
          </g>
          <g
             id="g4314"
             transform="matrix(0,-1,1,0,19.25881,627.6172)">
            <g
               id="g4340">
              <g
                 transform="matrix(0,1,-1,0,587.56993,-212.05425)"
                 id="g4293">
                <g
                   transform="matrix(1.116071,0,0,1.1160724,105.63171,-140.33899)"
                   id="layer1-5"
                   inkscape:label="Layer 1"
                   style="fill:none;fill-opacity:1;stroke:#00003c;stroke-width:7.67999983;stroke-miterlimit:4;stroke-dasharray:none;stroke-opacity:1">
                  <path
                     transform="translate(186.78571,306.77441)"
                     id="path4144-2"
                     d="M 14,0 0,14 0,50 14,64 50,64 64,50 64,14 50,0 14,0 Z"
                     style="opacity:1;fill:none;fill-opacity:1;stroke:#00003c;stroke-width:7.67999983;stroke-linecap:round;stroke-linejoin:miter;stroke-miterlimit:4;stroke-dasharray:none;stroke-dashoffset:0;stroke-opacity:1"
                     inkscape:connector-curvature="0" />
                </g>
                <path
                   style="opacity:0.98999999;fill:#00003c;fill-opacity:1;stroke:none;stroke-width:50;stroke-linecap:round;stroke-linejoin:miter;stroke-miterlimit:4;stroke-dasharray:none;stroke-dashoffset:0;stroke-opacity:1"
                   d="m 350.05091,217.16448 c -1.90076,-0.0896 -3.69272,0.88927 -4.64462,2.53694 l -11.33526,19.63416 c -1.95715,3.39128 0.48969,7.63069 4.4052,7.63141 l 3.53094,0 0,8.11268 c 0,1.81603 1.46217,3.27701 3.27819,3.27701 l 9.05347,0 c 1.816,0 3.27818,-1.46098 3.27818,-3.27701 l 0,-8.11268 3.53095,0 c 3.9155,-5.5e-4 6.36235,-4.24013 4.4052,-7.63141 L 354.2179,219.70142 c -0.86655,-1.49987 -2.43671,-2.45585 -4.16699,-2.53694 z"
                   id="rect4274"
                   inkscape:connector-curvature="0" />
              </g>
              <g
                 transform="matrix(-1,0,0,-1,799.62424,375.51562)"
                 id="g4298">
                <g
                   style="fill:none;fill-opacity:1;stroke:#00003c;stroke-width:7.67999983;stroke-miterlimit:4;stroke-dasharray:none;stroke-opacity:1"
                   inkscape:label="Layer 1"
                   id="g4300"
                   transform="matrix(1.116071,0,0,1.1160724,105.63171,-140.33899)">
                  <path
                     inkscape:connector-curvature="0"
                     style="opacity:1;fill:none;fill-opacity:1;stroke:#00003c;stroke-width:7.67999983;stroke-linecap:round;stroke-linejoin:miter;stroke-miterlimit:4;stroke-dasharray:none;stroke-dashoffset:0;stroke-opacity:1"
                     d="M 14,0 0,14 0,50 14,64 50,64 64,50 64,14 50,0 14,0 Z"
                     id="path4302"
                     transform="translate(186.78571,306.77441)" />
                </g>
                <path
                   inkscape:connector-curvature="0"
                   id="path4304"
                   d="m 350.05091,217.16448 c -1.90076,-0.0896 -3.69272,0.88927 -4.64462,2.53694 l -11.33526,19.63416 c -1.95715,3.39128 0.48969,7.63069 4.4052,7.63141 l 3.53094,0 0,8.11268 c 0,1.81603 1.46217,3.27701 3.27819,3.27701 l 9.05347,0 c 1.816,0 3.27818,-1.46098 3.27818,-3.27701 l 0,-8.11268 3.53095,0 c 3.9155,-5.5e-4 6.36235,-4.24013 4.4052,-7.63141 L 354.2179,219.70142 c -0.86655,-1.49987 -2.43671,-2.45585 -4.16699,-2.53694 z"
                   style="opacity:0.98999999;fill:#00003c;fill-opacity:1;stroke:none;stroke-width:50;stroke-linecap:round;stroke-linejoin:miter;stroke-miterlimit:4;stroke-dasharray:none;stroke-dashoffset:0;stroke-opacity:1" />
              </g>
              <g
                 id="g4306"
                 transform="matrix(-1,0,0,-1,799.62424,475.51556)">
                <g
                   transform="matrix(0,1.116071,-1.1160724,0,727.90886,-6.4226073)"
                   id="g4308"
                   inkscape:label="Layer 1"
                   style="fill:none;fill-opacity:1;stroke:#00003c;stroke-width:7.67999983;stroke-miterlimit:4;stroke-dasharray:none;stroke-opacity:1">
                  <path
                     transform="translate(186.78571,306.77441)"
                     id="path4310"
                     d="M 14,0 0,14 0,50 14,64 50,64 64,50 64,14 50,0 14,0 Z"
                     style="opacity:1;fill:none;fill-opacity:1;stroke:#00003c;stroke-width:7.67999983;stroke-linecap:round;stroke-linejoin:miter;stroke-miterlimit:4;stroke-dasharray:none;stroke-dashoffset:0;stroke-opacity:1"
                     inkscape:connector-curvature="0" />
                </g>
                <path
                   style="opacity:0.98999999;fill:#00003c;fill-opacity:1;stroke:none;stroke-width:50;stroke-linecap:round;stroke-linejoin:miter;stroke-miterlimit:4;stroke-dasharray:none;stroke-dashoffset:0;stroke-opacity:1"
                   d="m 370.40539,237.99659 c 0.0896,-1.90076 -0.88927,-3.69272 -2.53694,-4.64462 l -19.63416,-11.33526 c -3.39128,-1.95715 -7.63069,0.48969 -7.63141,4.4052 l 0,3.53094 -8.11268,0 c -1.81603,0 -3.27701,1.46217 -3.27701,3.27819 l 0,9.05347 c 0,1.816 1.46098,3.27818 3.27701,3.27818 l 8.11268,0 0,3.53095 c 5.5e-4,3.9155 4.24013,6.36235 7.63141,4.4052 l 19.63416,-11.33526 c 1.49987,-0.86655 2.45585,-2.43671 2.53694,-4.16699 z"
                   id="path4312"
                   inkscape:connector-curvature="0" />
              </g>
              <g
                 style="fill:none;fill-opacity:1;stroke:#00003c;stroke-width:7.67999983;stroke-miterlimit:4;stroke-dasharray:none;stroke-opacity:1"
                 inkscape:label="Layer 1"
                 id="g4316"
                 transform="matrix(1.116071,0,0,1.1160724,105.63171,-140.33899)">
                <path
                   inkscape:connector-curvature="0"
                   style="opacity:1;fill:none;fill-opacity:1;stroke:#00003c;stroke-width:7.67999983;stroke-linecap:round;stroke-linejoin:miter;stroke-miterlimit:4;stroke-dasharray:none;stroke-dashoffset:0;stroke-opacity:1"
                   d="M 14,0 0,14 0,50 14,64 50,64 64,50 64,14 50,0 14,0 Z"
                   id="path4318"
                   transform="translate(186.78571,306.77441)" />
              </g>
              <path
                 inkscape:connector-curvature="0"
                 id="path4320"
                 d="m 350.05091,217.16451 c -1.90076,-0.0896 -3.69272,0.88927 -4.64462,2.53694 l -11.33526,19.63416 c -1.95715,3.39128 0.48969,7.63069 4.4052,7.63141 l 3.53094,0 0,8.11268 c 0,1.81603 1.46217,3.27701 3.27819,3.27701 l 9.05347,0 c 1.816,0 3.27818,-1.46098 3.27818,-3.27701 l 0,-8.11268 3.53095,0 c 3.9155,-5.5e-4 6.36235,-4.24013 4.4052,-7.63141 L 354.2179,219.70145 c -0.86655,-1.49987 -2.43671,-2.45585 -4.16699,-2.53694 z"
                 style="opacity:0.98999999;fill:#00003c;fill-opacity:1;stroke:none;stroke-width:50;stroke-linecap:round;stroke-linejoin:miter;stroke-miterlimit:4;stroke-dasharray:none;stroke-dashoffset:0;stroke-opacity:1" />
            </g>
          </g>
        </g>
        <g
           id="g4296">
          <text
             xml:space="preserve"
             style="font-style:normal;font-variant:normal;font-weight:normal;font-stretch:normal;font-size:40px;line-height:125%;font-family:moderna;-inkscape-font-specification:'moderna, Normal';text-align:start;letter-spacing:0px;word-spacing:0px;writing-mode:lr-tb;text-anchor:start;fill:#00003c;fill-opacity:1;stroke:none;stroke-width:1px;stroke-linecap:butt;stroke-linejoin:miter;stroke-opacity:1"
             x="534.26868"
             y="487.32819"
             id="text4157"
             sodipodi:linespacing="125%"><tspan
               sodipodi:role="line"
               id="tspan4159"
               x="534.26868"
               y="487.32819">Flip gravity</tspan></text>
          <g
             id="g4244"
             transform="translate(97.307978,-53.023387)">
            <g
               id="g4188"
               transform="translate(-67.200031,294.32784)">
              <g
                 transform="matrix(0,-1,1,0,170.34512,674.16265)"
                 id="g4196">
                <g
                   id="g4198">
                  <g
                     id="g4208"
                     transform="matrix(-1,0,0,-1,799.62424,375.51562)">
                    <g
                       transform="matrix(1.116071,0,0,1.1160724,110.2409,-48.040594)"
                       id="g4210"
                       inkscape:label="Layer 1"
                       style="fill:none;fill-opacity:1;stroke:#00003c;stroke-width:7.67999983;stroke-miterlimit:4;stroke-dasharray:none;stroke-opacity:1">
                      <path
                         sodipodi:nodetypes="ccccccccc"
                         transform="translate(186.78571,306.77441)"
                         id="path4212"
                         d="m 14,-155.1413 -14,14 L 0,50 l 14,14 36,0 14,-14 0,-191.1413 -14,-14 z"
                         style="opacity:1;fill:none;fill-opacity:1;stroke:#00003c;stroke-width:7.67999983;stroke-linecap:round;stroke-linejoin:miter;stroke-miterlimit:4;stroke-dasharray:none;stroke-dashoffset:0;stroke-opacity:1"
                         inkscape:connector-curvature="0" />
                    </g>
                  </g>
                </g>
              </g>
            </g>
            <text
               xml:space="preserve"
               style="font-style:normal;font-variant:normal;font-weight:normal;font-stretch:normal;font-size:40px;line-height:125%;font-family:moderna;-inkscape-font-specification:'moderna, Normal';text-align:start;letter-spacing:0px;word-spacing:0px;writing-mode:lr-tb;text-anchor:start;fill:#00003c;fill-opacity:1;stroke:none;stroke-width:1px;stroke-linecap:butt;stroke-linejoin:miter;stroke-opacity:1"
               x="178.51555"
               y="538.86975"
               id="text4240"
               sodipodi:linespacing="125%"><tspan
                 sodipodi:role="line"
                 id="tspan4242"
                 x="178.51555"
                 y="538.86975">SPACE</tspan></text>
          </g>
        </g>
      </g>
    </g>
  </g>
</svg>
