<?xml version="1.0" encoding="UTF-8" standalone="no"?>
<!-- Created with Inkscape (http://www.inkscape.org/) -->

<svg
   xmlns:dc="http://purl.org/dc/elements/1.1/"
   xmlns:cc="http://creativecommons.org/ns#"
   xmlns:rdf="http://www.w3.org/1999/02/22-rdf-syntax-ns#"
   xmlns:svg="http://www.w3.org/2000/svg"
   xmlns="http://www.w3.org/2000/svg"
   xmlns:sodipodi="http://sodipodi.sourceforge.net/DTD/sodipodi-0.dtd"
   xmlns:inkscape="http://www.inkscape.org/namespaces/inkscape"
   width="1024"
   height="1024"
   viewBox="0 0 1024 1024"
   id="svg2"
   version="1.1"
   inkscape:version="0.91 r13725"
   sodipodi:docname="instructions-editable.svg">
  <defs
     id="defs4" />
  <sodipodi:namedview
     id="base"
     pagecolor="#ffffff"
     bordercolor="#666666"
     borderopacity="1.0"
     inkscape:pageopacity="0.0"
     inkscape:pageshadow="2"
     inkscape:zoom="0.49497475"
     inkscape:cx="116.21022"
     inkscape:cy="520"
     inkscape:document-units="px"
     inkscape:current-layer="layer1"
     showgrid="false"
     units="px"
     fit-margin-top="0"
     fit-margin-left="0"
     fit-margin-right="0"
     fit-margin-bottom="0"
     inkscape:window-width="1440"
     inkscape:window-height="800"
     inkscape:window-x="0"
     inkscape:window-y="1"
     inkscape:window-maximized="1" />
  <metadata
     id="metadata7">
    <rdf:RDF>
      <cc:Work
         rdf:about="">
        <dc:format>image/svg+xml</dc:format>
        <dc:type
           rdf:resource="http://purl.org/dc/dcmitype/StillImage" />
        <dc:title />
      </cc:Work>
    </rdf:RDF>
  </metadata>
  <g
     inkscape:label="Layer 1"
     inkscape:groupmode="layer"
     id="layer1"
     transform="translate(0,-28.36218)">
    <text
       xml:space="preserve"
       style="font-style:normal;font-variant:normal;font-weight:normal;font-stretch:normal;font-size:40px;line-height:125%;font-family:moderna;-inkscape-font-specification:'moderna, Normal';text-align:start;letter-spacing:0px;word-spacing:0px;writing-mode:lr-tb;text-anchor:start;fill:#000000;fill-opacity:1;stroke:none;stroke-width:1px;stroke-linecap:butt;stroke-linejoin:miter;stroke-opacity:1"
       x="290.92392"
       y="415.96609"
       id="text4155"
       sodipodi:linespacing="125%"><tspan
         sodipodi:role="line"
         id="tspan4157"
         x="290.92392"
         y="415.96609" /></text>
    <g
       id="g4237"
       transform="translate(0,64.032992)">
      <path
         inkscape:connector-curvature="0"
         d="m 512,523.26138 c -26.40248,0 -47.80926,21.4145 -47.80926,47.80926 0,26.41019 21.40679,47.80927 47.80926,47.80927 26.40247,0 47.80926,-21.39908 47.80926,-47.80927 0,-26.39476 -21.40679,-47.80926 -47.80926,-47.80926 z m 0,21.20572 c 4.47171,0 8.09672,3.62502 8.09672,8.09673 0,4.47171 -3.62501,8.09673 -8.09672,8.09673 -4.47171,0 -8.09673,-3.62502 -8.09673,-8.09673 0,-4.47171 3.62502,-8.09673 8.09673,-8.09673 z m 10.79565,48.96594 c 0,1.27755 -1.03581,2.31336 -2.31335,2.31336 l -16.9646,0 c -1.27754,0 -2.31335,-1.03581 -2.31335,-2.31336 l 0,-4.6267 c 0,-1.27755 1.03581,-2.31335 2.31335,-2.31335 l 2.31336,0 0,-12.33788 -2.31336,0 c -1.27754,0 -2.31335,-1.0358 -2.31335,-2.31334 l 0,-4.62671 c 0,-1.27755 1.03581,-2.31335 2.31335,-2.31335 l 12.33789,0 c 1.27755,0 2.31335,1.0358 2.31335,2.31335 l 0,19.27793 2.31336,0 c 1.27754,0 2.31335,1.0358 2.31335,2.31335 l 0,4.6267 z"
         id="path4"
         style="fill:#00003c;fill-opacity:1" />
      <text
         sodipodi:linespacing="125%"
         id="text4221"
         y="365.45847"
         x="510.60751"
         style="font-style:normal;font-variant:normal;font-weight:normal;font-stretch:normal;font-size:40px;line-height:125%;font-family:moderna;-inkscape-font-specification:'moderna, Normal';text-align:start;letter-spacing:0px;word-spacing:0px;writing-mode:lr-tb;text-anchor:start;fill:#00003c;fill-opacity:1;stroke:none;stroke-width:1px;stroke-linecap:butt;stroke-linejoin:miter;stroke-opacity:1;"
         xml:space="preserve"><tspan
           style="text-align:center;text-anchor:middle;fill:#00003c;fill-opacity:1;"
           id="tspan4225"
           y="365.45847"
           x="510.60751"
           sodipodi:role="line">Tip:</tspan><tspan
           style="text-align:center;text-anchor:middle;fill:#00003c;fill-opacity:1;"
           id="tspan4229"
           y="415.45847"
           x="510.60751"
           sodipodi:role="line">Hover over the bottom</tspan><tspan
           style="text-align:center;text-anchor:middle;fill:#00003c;fill-opacity:1;"
           id="tspan4231"
           y="465.45847"
           x="510.60751"
           sodipodi:role="line">to reveal the settings.</tspan></text>
    </g>
    <text
       xml:space="preserve"
       style="font-style:normal;font-variant:normal;font-weight:normal;font-stretch:normal;font-size:40px;line-height:125%;font-family:moderna;-inkscape-font-specification:'moderna, Normal';text-align:start;letter-spacing:0px;word-spacing:0px;writing-mode:lr-tb;text-anchor:start;fill:#00003c;fill-opacity:1;stroke:none;stroke-width:1px;stroke-linecap:butt;stroke-linejoin:miter;stroke-opacity:1;"
       x="272.50436"
       y="910.16925"
       id="text4233"
       sodipodi:linespacing="125%"><tspan
         sodipodi:role="line"
         id="tspan4235"
         x="272.50436"
         y="910.16925">- - - click to continue - - -</tspan></text>
  </g>
</svg>
