<?xml version="1.0" encoding="UTF-8" standalone="no"?>
<!-- Created with Inkscape (http://www.inkscape.org/) -->

<svg
   xmlns:dc="http://purl.org/dc/elements/1.1/"
   xmlns:cc="http://creativecommons.org/ns#"
   xmlns:rdf="http://www.w3.org/1999/02/22-rdf-syntax-ns#"
   xmlns:svg="http://www.w3.org/2000/svg"
   xmlns="http://www.w3.org/2000/svg"
   xmlns:sodipodi="http://sodipodi.sourceforge.net/DTD/sodipodi-0.dtd"
   xmlns:inkscape="http://www.inkscape.org/namespaces/inkscape"
   width="18.062222mm"
   height="18.062222mm"
   viewBox="0 0 63.999998 63.999997"
   id="svg2"
   version="1.1"
   inkscape:version="0.91 r13725"
   sodipodi:docname="missing.svg">
  <defs
     id="defs4" />
  <sodipodi:namedview
     id="base"
     pagecolor="#ffffff"
     bordercolor="#666666"
     borderopacity="1.0"
     inkscape:pageopacity="0.0"
     inkscape:pageshadow="2"
     inkscape:zoom="2.8"
     inkscape:cx="11.995989"
     inkscape:cy="-6.8959744"
     inkscape:document-units="px"
     inkscape:current-layer="text4134"
     showgrid="false"
     fit-margin-top="0"
     fit-margin-left="0"
     fit-margin-right="0"
     fit-margin-bottom="0"
     inkscape:window-width="1440"
     inkscape:window-height="800"
     inkscape:window-x="0"
     inkscape:window-y="1"
     inkscape:window-maximized="1" />
  <metadata
     id="metadata7">
    <rdf:RDF>
      <cc:Work
         rdf:about="">
        <dc:format>image/svg+xml</dc:format>
        <dc:type
           rdf:resource="http://purl.org/dc/dcmitype/StillImage" />
        <dc:title />
      </cc:Work>
    </rdf:RDF>
  </metadata>
  <g
     inkscape:label="Layer 1"
     inkscape:groupmode="layer"
     id="layer1"
     transform="translate(-186.78571,-306.77441)">
    <rect
       style="opacity:1;fill:#261a0d;fill-opacity:1;stroke:none;stroke-width:0;stroke-linecap:round;stroke-linejoin:miter;stroke-miterlimit:4;stroke-dasharray:none;stroke-dashoffset:0;stroke-opacity:1"
       id="rect4136"
       width="64"
       height="64"
       x="186.78571"
       y="306.77441"
       ry="0" />
    <g
       style="font-style:normal;font-variant:normal;font-weight:normal;font-stretch:normal;font-size:55.87969971px;line-height:125%;font-family:moderna;-inkscape-font-specification:'moderna, Normal';text-align:start;letter-spacing:0px;word-spacing:0px;writing-mode:lr-tb;text-anchor:start;fill:#000000;fill-opacity:1;stroke:none;stroke-width:1px;stroke-linecap:butt;stroke-linejoin:miter;stroke-opacity:1"
       id="text4134">
      <path
         d="m 214.57017,352.58062 5.53886,0 0,6.9304 -5.53886,0 0,-6.9304 z m 5.37515,-4.01089 -5.21144,0 0,-4.20189 q 0,-2.75579 0.76398,-4.52932 0.76398,-1.77352 3.21963,-4.12003 l 2.45565,-2.42837 q 1.55525,-1.4461 2.23738,-2.7285 0.70941,-1.28239 0.70941,-2.61936 0,-2.42837 -1.80082,-3.92904 -1.77352,-1.50068 -4.7203,-1.50068 -2.15552,0 -4.61117,0.95498 -2.42836,0.95497 -5.07501,2.78307 l 0,-5.12958 q 2.56479,-1.55525 5.18415,-2.31923 2.64665,-0.76398 5.457,-0.76398 5.02045,0 8.04908,2.64665 3.05592,2.64664 3.05592,6.98496 0,2.07366 -0.98226,3.95633 -0.98226,1.85538 -3.43791,4.20189 l -2.40108,2.34651 q -1.2824,1.28239 -1.8281,2.01909 -0.51841,0.70941 -0.73669,1.39154 -0.16371,0.57298 -0.24557,1.39153 -0.0819,0.81855 -0.0819,2.23737 l 0,3.35606 z"
         style="font-style:normal;font-variant:normal;font-weight:normal;font-stretch:normal;font-family:sans-serif;-inkscape-font-specification:sans-serif;fill:#ffffff;fill-opacity:1"
         id="path4139" />
    </g>
  </g>
</svg>
