<?xml version="1.0" encoding="UTF-8" standalone="no"?>
<!-- Created with Inkscape (http://www.inkscape.org/) -->

<svg
   xmlns:dc="http://purl.org/dc/elements/1.1/"
   xmlns:cc="http://creativecommons.org/ns#"
   xmlns:rdf="http://www.w3.org/1999/02/22-rdf-syntax-ns#"
   xmlns:svg="http://www.w3.org/2000/svg"
   xmlns="http://www.w3.org/2000/svg"
   xmlns:sodipodi="http://sodipodi.sourceforge.net/DTD/sodipodi-0.dtd"
   xmlns:inkscape="http://www.inkscape.org/namespaces/inkscape"
   width="1024"
   height="1024"
   viewBox="0 0 1024 1024"
   id="svg2"
   version="1.1"
   inkscape:version="0.91 r13725"
   sodipodi:docname="thumbnail.svg">
  <defs
     id="defs4" />
  <sodipodi:namedview
     id="base"
     pagecolor="#ffffff"
     bordercolor="#666666"
     borderopacity="1.0"
     inkscape:pageopacity="0.0"
     inkscape:pageshadow="2"
     inkscape:zoom="0.49497475"
     inkscape:cx="476.63297"
     inkscape:cy="469.33334"
     inkscape:document-units="px"
     inkscape:current-layer="layer3"
     showgrid="false"
     units="px"
     inkscape:window-width="1440"
     inkscape:window-height="800"
     inkscape:window-x="0"
     inkscape:window-y="1"
     inkscape:window-maximized="1" />
  <metadata
     id="metadata7">
    <rdf:RDF>
      <cc:Work
         rdf:about="">
        <dc:format>image/svg+xml</dc:format>
        <dc:type
           rdf:resource="http://purl.org/dc/dcmitype/StillImage" />
        <dc:title></dc:title>
      </cc:Work>
    </rdf:RDF>
  </metadata>
  <g
     inkscape:groupmode="layer"
     id="layer2"
     inkscape:label="bottom"
     style="display:inline">
    <g
       style="fill:#e6f7ff;fill-opacity:1"
       id="g4447"
       transform="matrix(12.8,0,0,12.8,-2715.1454,-3824.3126)">
      <g
         id="g4449"
         style="fill:#e6f7ff;fill-opacity:1">
        <path
           id="path4453"
           d="m 234.12074,306.77441 -14,14 0,36 14,14 36,0 14,-14 0,-36 -14,-14 -36,0 z"
           style="opacity:1;fill:#e6f7ff;fill-opacity:1;stroke:none;stroke-width:0;stroke-linecap:round;stroke-linejoin:miter;stroke-miterlimit:4;stroke-dasharray:none;stroke-dashoffset:0;stroke-opacity:1"
           inkscape:connector-curvature="0" />
      </g>
    </g>
  </g>
  <g
     inkscape:groupmode="layer"
     id="layer4"
     inkscape:label="body">
    <path
       inkscape:connector-curvature="0"
       d="m 423.71696,438.29579 c 2.92223,-7.62629 4.56152,-15.96533 4.56152,-24.66073 0,-37.77511 -30.64773,-68.42284 -68.42283,-68.42284 -14.04094,0 -27.15532,4.27643 -37.98893,11.54636 -19.74284,-34.21142 -56.59139,-57.16158 -98.85675,-57.16158 -63.00602,0 -114.03806,51.03203 -114.03806,114.03806 0,1.92439 0.0713,3.84879 0.14255,5.77318 -39.913331,14.04093 -68.565394,52.10114 -68.565394,96.86108 0,56.66266 45.9716,102.63425 102.634264,102.63425 l 262.28754,0 c 50.39057,0 91.23046,-40.83988 91.23046,-91.23045 0,-44.11847 -31.36048,-80.96702 -72.98437,-89.37733 z"
       id="path4439"
       style="display:inline;fill:#dadaeb;fill-opacity:0.54901963;stroke:none;stroke-width:50;stroke-miterlimit:4;stroke-dasharray:none;stroke-opacity:1" />
    <path
       style="display:inline;fill:#dadaeb;fill-opacity:0.70588237;stroke:none;stroke-width:50;stroke-miterlimit:4;stroke-dasharray:none;stroke-opacity:1"
       id="path5946"
       d="m 836.66733,598.80271 c 4.34591,-11.34175 6.78385,-23.7435 6.78385,-36.67523 0,-56.17882 -45.57905,-101.75787 -101.75786,-101.75787 -20.88157,0 -40.38516,6.35987 -56.49682,17.17165 -29.36138,-50.87894 -84.16224,-85.01022 -147.01893,-85.01022 -93.70202,0 -169.59644,75.8944 -169.59644,169.59644 0,2.86194 0.10604,5.72389 0.212,8.58583 -59.35879,20.88155 -101.96989,77.48438 -101.96989,144.05098 0,84.26824 68.36858,152.6368 152.63683,152.6368 l 390.07182,0 c 74.94044,0 135.67718,-60.73673 135.67718,-135.67716 0,-65.61262 -46.63904,-120.41347 -108.54174,-132.92122 z"
       inkscape:connector-curvature="0" />
    <path
       inkscape:connector-curvature="0"
       d="m 899.5392,274.83986 c 2.03658,-5.31499 3.17905,-11.1267 3.17905,-17.18678 0,-26.32656 -21.35929,-47.68584 -47.68584,-47.68584 -9.78554,0 -18.92533,2.98036 -26.47558,8.04698 -13.75935,-23.84292 -39.44017,-39.83754 -68.89612,-39.83754 -43.9107,0 -79.4764,35.56568 -79.4764,79.4764 0,1.34117 0.0497,2.68233 0.0993,4.0235 -27.81676,9.78553 -47.7852,36.31078 -47.7852,67.50527 0,39.48984 32.03893,71.52877 71.52878,71.52877 l 182.79574,0 c 35.11864,0 63.58112,-28.46249 63.58112,-63.58113 0,-30.74743 -21.85598,-56.42825 -50.86489,-62.28963 z"
       id="path5948"
       style="display:inline;fill:#dadaeb;fill-opacity:0.47058824;stroke:none;stroke-width:50;stroke-miterlimit:4;stroke-dasharray:none;stroke-opacity:1" />
    <g
       style="display:inline"
       transform="matrix(3.125,0,0,3.125,-43.53332,-428.1638)"
       id="layer1-1"
       inkscape:label="Layer 1">
      <g
         style="fill:#648cff;fill-opacity:1"
         transform="matrix(0.8,0,0,0.8,17.089117,67.754881)"
         inkscape:label="Layer 1"
         id="layer1-5">
        <g
           id="g4427">
          <g
             id="g4431">
            <rect
               transform="matrix(1.25,0,0,1.25,-21.361396,-84.693601)"
               ry="0"
               y="306.77441"
               x="186.78571"
               height="64"
               width="64"
               id="rect4136"
               style="opacity:1;fill:#3c28ff;fill-opacity:1;stroke:none;stroke-width:0;stroke-linecap:round;stroke-linejoin:miter;stroke-miterlimit:4;stroke-dasharray:none;stroke-dashoffset:0;stroke-opacity:1" />
            <path
               inkscape:connector-curvature="0"
               style="opacity:1;fill:#648cff;fill-opacity:1;stroke:none;stroke-width:0;stroke-linecap:round;stroke-linejoin:miter;stroke-miterlimit:4;stroke-dasharray:none;stroke-dashoffset:0;stroke-opacity:1"
               d="m 234.12074,306.77441 -14,14 0,36 14,14 36,0 14,-14 0,-36 -14,-14 -36,0 z"
               id="path4144" />
          </g>
        </g>
      </g>
    </g>
    <g
       transform="matrix(-0.99521901,4.0968418,-4.0968418,-0.99521901,1953.5382,-227.30601)"
       id="layer1"
       inkscape:label="Layer 1">
      <path
         transform="matrix(0.68304441,0,0,0.68400142,69.24777,108.37712)"
         inkscape:transform-center-y="-3.7757827"
         d="m 218.92857,317.31845 19.12228,11.04025 0,22.08051 -19.12228,11.04025 -19.12228,-11.04025 0,-22.08051 z"
         inkscape:randomized="0"
         inkscape:rounded="0"
         inkscape:flatsided="true"
         sodipodi:arg2="-1.0471975"
         sodipodi:arg1="-1.5707963"
         sodipodi:r2="11.040254"
         sodipodi:r1="22.080507"
         sodipodi:cy="339.39896"
         sodipodi:cx="218.92857"
         sodipodi:sides="6"
         id="path4134"
         style="opacity:1;fill:#00a0b4;fill-opacity:1;stroke:#00006c;stroke-width:0;stroke-linecap:round;stroke-linejoin:miter;stroke-miterlimit:4;stroke-dasharray:none;stroke-dashoffset:0;stroke-opacity:1"
         sodipodi:type="star" />
    </g>
    <g
       inkscape:label="Layer 1"
       id="g6062"
       transform="matrix(-0.99521901,4.0968418,-4.0968418,-0.99521901,1918.1295,-81.545178)">
      <path
         sodipodi:type="star"
         style="opacity:1;fill:#00a0b4;fill-opacity:1;stroke:#00006c;stroke-width:0;stroke-linecap:round;stroke-linejoin:miter;stroke-miterlimit:4;stroke-dasharray:none;stroke-dashoffset:0;stroke-opacity:1"
         id="path6064"
         sodipodi:sides="6"
         sodipodi:cx="218.92857"
         sodipodi:cy="339.39896"
         sodipodi:r1="22.080507"
         sodipodi:r2="11.040254"
         sodipodi:arg1="-1.5707963"
         sodipodi:arg2="-1.0471975"
         inkscape:flatsided="true"
         inkscape:rounded="0"
         inkscape:randomized="0"
         d="m 218.92857,317.31845 19.12228,11.04025 0,22.08051 -19.12228,11.04025 -19.12228,-11.04025 0,-22.08051 z"
         inkscape:transform-center-y="-3.7757827"
         transform="matrix(0.68304441,0,0,0.68400142,69.24777,108.37712)" />
    </g>
    <g
       transform="matrix(-0.99521901,4.0968418,-4.0968418,-0.99521901,2062.0665,-123.76077)"
       id="g6066"
       inkscape:label="Layer 1">
      <path
         transform="matrix(0.68304441,0,0,0.68400142,69.24777,108.37712)"
         inkscape:transform-center-y="-3.7757827"
         d="m 218.92857,317.31845 19.12228,11.04025 0,22.08051 -19.12228,11.04025 -19.12228,-11.04025 0,-22.08051 z"
         inkscape:randomized="0"
         inkscape:rounded="0"
         inkscape:flatsided="true"
         sodipodi:arg2="-1.0471975"
         sodipodi:arg1="-1.5707963"
         sodipodi:r2="11.040254"
         sodipodi:r1="22.080507"
         sodipodi:cy="339.39896"
         sodipodi:cx="218.92857"
         sodipodi:sides="6"
         id="path6068"
         style="opacity:1;fill:#00a0b4;fill-opacity:1;stroke:#00006c;stroke-width:0;stroke-linecap:round;stroke-linejoin:miter;stroke-miterlimit:4;stroke-dasharray:none;stroke-dashoffset:0;stroke-opacity:1"
         sodipodi:type="star" />
    </g>
  </g>
  <g
     inkscape:groupmode="layer"
     id="layer3"
     inkscape:label="frame"
     style="display:inline">
    <path
       style="display:inline;opacity:1;fill:#ffffff;fill-opacity:1;stroke:none;stroke-width:0;stroke-linecap:round;stroke-linejoin:miter;stroke-miterlimit:4;stroke-dasharray:none;stroke-dashoffset:0;stroke-opacity:1"
       d="m 0,0 0,1024 1024,0 L 1024,0 0,0 Z m 281.59961,102.40039 460.80078,0 179.19922,179.19922 0,460.80078 -179.19922,179.19922 -460.80078,0 -179.19922,-179.19922 0,-460.80078 179.19922,-179.19922 z"
       id="rect4451"
       transform="translate(-5.5999999e-5,-2.4e-5)"
       inkscape:connector-curvature="0" />
  </g>
</svg>
